<?xml version="1.0" encoding="utf-8"?>
<svg viewBox="0.003 0.003 500 500" width="500px" height="500px" xmlns="http://www.w3.org/2000/svg">
  <defs>
    <style>.cls-1,.cls-3{fill:#3a3772;}.cls-1,.cls-2{fill-rule:evenodd;}.cls-2,.cls-4{fill:#4db3b5;}</style>
  </defs>
  <path class="cls-1" d="M 247.237 290.013 C 260.437 285.953 272.997 279.193 287.517 280.873 C 291.156 281.184 294.734 282.002 298.147 283.303 C 301.967 257.583 313.643 226.056 333.177 188.723 L 330.767 187.723 L 221.377 198.333 C 212.383 235.293 211.643 268.313 219.157 297.393 C 228.007 299.143 237.977 292.843 247.237 290.013 Z"/>
  <path class="cls-2" d="M 173.237 245.253 C 173.977 248.533 174.773 251.803 175.627 255.063 L 176.777 252.643 L 175.777 255.753 C 176.59 258.833 177.447 261.896 178.347 264.943 L 189.747 269.213 C 180.617 233.103 179.877 202.083 189.937 169.083 L 178.607 170.533 L 280.937 157.473 L 284.327 134.093 L 168.487 142.933 C 163.597 168.443 164.657 203.183 171.627 237.833 Z"/>
  <path class="cls-2" d="M 196.677 175.063 C 187.077 205.503 185.867 236.173 192.127 270.063 L 210.127 276.793 C 207.127 253.303 208.977 226.013 216.517 193.943 L 205.777 195.253 L 303.827 183.253 L 308.717 159.883 Z"/>
  <path class="cls-2" d="M 251.547 200.043 L 225.657 202.553 C 223.451 211.541 221.705 220.636 220.427 229.803 C 224.167 218.583 227.417 211.033 230.177 207.153 C 235.543 204.186 242.667 201.816 251.547 200.043 Z"/>
  <path class="cls-3" d="M 71.437 149.543 L 235.437 78.683 C 238.657 77.043 244.107 77.523 247.607 79.073 L 395.607 143.463 L 413.537 85.363 L 246.747 11.073 C 242.267 8.453 238.987 9.073 234.497 11.313 L 138.677 53.453 L 22.327 98.123 C 21.747 98.343 21.147 98.533 20.547 98.703 C 14.297 100.523 12.687 104.103 12.437 110.553 C 9.367 187.643 42.167 245.213 106.737 285.993 C 133.527 302.923 161.307 318.063 188.917 333.533 C 192.377 335.473 195.457 337.323 199.697 335.533 C 229.237 323.323 258.837 311.233 290.377 298.303 C 283.687 293.843 278.477 292.953 273.117 292.303 C 258.597 290.613 246.037 297.383 232.837 301.443 C 222.697 304.553 211.647 311.873 202.177 308.053 C 187.587 302.163 174.787 291.863 161.247 283.393 L 162.017 281.583 L 202.507 292.083 C 205.727 283.283 201.767 280.083 194.417 277.363 C 172.707 269.293 151.657 259.363 128.037 257.703 C 125.457 257.533 122.107 257.013 120.547 255.333 C 105.827 239.483 90.837 223.733 82.547 203.173"/>
  <path class="cls-3" d="M 461.687 194.823 L 406.937 170.593 L 406.937 170.593 C 406.937 170.593 383.237 243.793 369.337 271.473 C 346.537 316.853 315.967 356.413 279.847 391.873 C 276.597 395.063 248.967 423.033 240.027 430.663 C 238.617 429.663 233.857 426.183 232.477 425.113 C 199.817 399.993 179.477 371.363 155.127 339.483 C 144.917 333.483 134.767 327.383 124.747 321.053 C 71.407 287.363 36.207 244.053 20.747 190.173 C 21.127 192.033 21.497 193.893 21.907 195.743 C 31.187 237.833 47.737 277.513 68.907 315.003 C 107.857 384.003 159.737 441.443 225.527 486.003 C 233.495 491.466 243.805 492.163 252.437 487.823 C 266.557 480.333 278.567 469.323 292.437 459.363 C 292.307 459.283 292.567 459.453 292.437 459.363 C 300.337 452.153 322.287 432.113 323.957 430.523 C 350.787 405.003 373.907 376.343 394.227 345.453 C 424.087 300.043 461.677 194.803 461.677 194.803 Z"/>
  <polygon class="cls-4" points="487.767 117.303 468.167 175.563 468.167 175.563 413.127 151.213 413.127 151.213 431.007 92.623 431.007 92.623 487.767 117.303 487.767 117.303"/>
</svg>