<svg id="Layer_1" data-name="Layer 1" xmlns="http://www.w3.org/2000/svg" viewBox="0 0 1340 481.32"><defs><style>.cls-1,.cls-3{fill:#3a3772;}.cls-1,.cls-2{fill-rule:evenodd;}.cls-2,.cls-4{fill:#4db3b5;}</style></defs><path class="cls-1" d="M525,601.29c13.2-4.06,25.76-10.82,40.28-9.14a39.26,39.26,0,0,1,10.63,2.43Q581.64,556,610.94,500l-2.41-1L499.14,509.61q-13.49,55.44-2.22,99.06C505.77,610.42,515.74,604.12,525,601.29Z" transform="translate(-290 -320.63)"/><path class="cls-2" d="M451,556.53q1.11,4.92,2.39,9.81l1.15-2.42-1,3.11q1.22,4.62,2.57,9.19l11.4,4.27c-9.13-36.11-9.87-67.13.19-100.13l-11.33,1.45,102.33-13.06,3.39-23.38-115.84,8.84c-4.89,25.51-3.83,60.25,3.14,94.9Z" transform="translate(-290 -320.63)"/><path class="cls-2" d="M474.44,486.34c-9.6,30.44-10.81,61.11-4.55,95l18,6.73c-3-23.49-1.15-50.78,6.39-82.85l-10.74,1.31,98.05-12,4.89-23.37Z" transform="translate(-290 -320.63)"/><path class="cls-2" d="M529.31,511.32l-25.89,2.51a271.87,271.87,0,0,0-5.23,27.25q5.61-16.83,9.75-22.65,8.05-4.45,21.37-7.11Z" transform="translate(-290 -320.63)"/><path class="cls-3" d="M349.2,460.82l164-70.86c3.22-1.64,8.67-1.16,12.17.39l148,64.39,17.93-58.1L524.51,322.35c-4.48-2.62-7.76-2-12.25.24l-95.82,42.14L300.09,409.4c-.58.22-1.18.41-1.78.58-6.25,1.82-7.86,5.4-8.11,11.85-3.07,77.09,29.73,134.66,94.3,175.44,26.79,16.93,54.57,32.07,82.18,47.54,3.46,1.94,6.54,3.79,10.78,2,29.54-12.21,59.14-24.3,90.68-37.23-6.69-4.46-11.9-5.35-17.26-6-14.52-1.69-27.08,5.08-40.28,9.14-10.14,3.11-21.19,10.43-30.66,6.61-14.59-5.89-27.39-16.19-40.93-24.66l.77-1.81,40.49,10.5c3.22-8.8-.74-12-8.09-14.72-21.71-8.07-42.76-18-66.38-19.66-2.58-.17-5.93-.69-7.49-2.37-14.72-15.85-29.71-31.6-38-52.16" transform="translate(-290 -320.63)"/><path class="cls-3" d="M739.45,506.1,684.7,481.87h0s-23.7,73.2-37.6,100.88c-22.8,45.38-53.37,84.94-89.49,120.4-3.25,3.19-30.88,31.16-39.82,38.79-1.41-1-6.17-4.48-7.55-5.55-32.66-25.12-53-53.75-77.35-85.63-10.21-6-20.36-12.1-30.38-18.43-53.34-33.69-88.54-77-104-130.88.38,1.86.75,3.72,1.16,5.57,9.28,42.09,25.83,81.77,47,119.26,38.95,69,90.83,126.44,156.62,171a26.52,26.52,0,0,0,26.91,1.82c14.12-7.49,26.13-18.5,40-28.46-.13-.08.13.09,0,0,7.9-7.21,29.85-27.25,31.52-28.84,26.83-25.52,49.95-54.18,70.27-85.07,29.86-45.41,67.45-150.65,67.45-150.65Z" transform="translate(-290 -320.63)"/><polygon class="cls-4" points="475.53 107.95 455.93 166.21 455.93 166.21 400.89 141.86 400.89 141.86 418.77 83.27 418.77 83.27 475.53 107.95 475.53 107.95"/><path class="cls-3" d="M872.32,498.6v56.49H833.11v-169h59.63q17.85,0,30.68,4.24T944.53,402a45.46,45.46,0,0,1,12.24,17.52,59.6,59.6,0,0,1,3.94,21.81,64,64,0,0,1-4.06,23.19,46.58,46.58,0,0,1-12.41,18.1,58.46,58.46,0,0,1-21.17,11.77q-12.83,4.25-30.33,4.24Zm0-29.58h20.42q15.3,0,22-7.31t6.73-20.41a30.54,30.54,0,0,0-1.74-10.56,21.47,21.47,0,0,0-5.28-8.18,23.68,23.68,0,0,0-8.93-5.28,39.68,39.68,0,0,0-12.81-1.85H872.32Z" transform="translate(-290 -320.63)"/><path class="cls-3" d="M1058.38,555.09c-3.41,0-6-.47-7.72-1.39s-3.19-2.86-4.35-5.8l-2.55-6.62q-4.53,3.84-8.7,6.73a54,54,0,0,1-8.64,4.93,42.57,42.57,0,0,1-9.51,3,59.26,59.26,0,0,1-11.2,1,48.75,48.75,0,0,1-15-2.15,31.34,31.34,0,0,1-11.43-6.34A27.89,27.89,0,0,1,972.07,538a37.68,37.68,0,0,1-2.55-14.37,30.32,30.32,0,0,1,3.25-13.15Q976,503.76,984,498.23T1005.6,489q13.57-3.72,34.22-3.72v-5.15q0-10.65-4.35-15.4T1023.11,460a32.75,32.75,0,0,0-10.44,1.39,47.56,47.56,0,0,0-7.25,3.13q-3.18,1.74-6.2,3.14A17.17,17.17,0,0,1,992,469a10.88,10.88,0,0,1-6.33-1.8,13.29,13.29,0,0,1-4.11-4.47l-6.5-11.25a73.19,73.19,0,0,1,24.19-14.32,84.77,84.77,0,0,1,28.47-4.7,52,52,0,0,1,19.66,3.54,42.26,42.26,0,0,1,14.85,9.86,43.11,43.11,0,0,1,9.34,15,54.1,54.1,0,0,1,3.25,19v75.17Zm-41.3-21.93a28.59,28.59,0,0,0,12.18-2.43,37.18,37.18,0,0,0,10.56-7.89V506.37a92.84,92.84,0,0,0-17.75,1.4,43.21,43.21,0,0,0-11,3.51,13.48,13.48,0,0,0-5.63,4.8,11.47,11.47,0,0,0-1.56,5.85q0,6.21,3.36,8.72T1017.08,533.16Z" transform="translate(-290 -320.63)"/><path class="cls-3" d="M1144.91,586.29a12.89,12.89,0,0,1-4,5.28c-1.54,1.12-4,1.68-7.42,1.68h-26.91l23.2-48.72-48-109.73h31.78a10.11,10.11,0,0,1,6.49,1.86,9.9,9.9,0,0,1,3.25,4.4l19.72,51.85a113.73,113.73,0,0,1,4.53,14.39c.77-2.48,1.62-4.91,2.55-7.31s1.81-4.83,2.67-7.31l17.86-51.62a8.86,8.86,0,0,1,3.65-4.46,10.44,10.44,0,0,1,5.86-1.8h29Z" transform="translate(-290 -320.63)"/><path class="cls-3" d="M1377.36,470.53a88.48,88.48,0,0,1-6.32,33.81,79.13,79.13,0,0,1-17.8,26.79,80.89,80.89,0,0,1-27.67,17.64,98,98,0,0,1-35.9,6.32H1224v-169h65.65a97.16,97.16,0,0,1,35.9,6.38,82.08,82.08,0,0,1,27.67,17.63,78.53,78.53,0,0,1,17.8,26.74A88.21,88.21,0,0,1,1377.36,470.53Zm-40.13,0a73.42,73.42,0,0,0-3.25-22.62,48.4,48.4,0,0,0-9.34-17.11,40.54,40.54,0,0,0-14.9-10.79,50.69,50.69,0,0,0-20.07-3.77h-26.21V524.93h26.21a50.69,50.69,0,0,0,20.07-3.77,40.54,40.54,0,0,0,14.9-10.79,48.4,48.4,0,0,0,9.34-17.11A73.87,73.87,0,0,0,1337.23,470.53Z" transform="translate(-290 -320.63)"/><path class="cls-3" d="M1479.21,555.09c-3.41,0-6-.47-7.72-1.39s-3.19-2.86-4.35-5.8l-2.55-6.62q-4.53,3.84-8.7,6.73a54,54,0,0,1-8.64,4.93,42.57,42.57,0,0,1-9.51,3,59.26,59.26,0,0,1-11.2,1,48.75,48.75,0,0,1-15-2.15,31.34,31.34,0,0,1-11.43-6.34A27.89,27.89,0,0,1,1392.9,538a37.68,37.68,0,0,1-2.55-14.37,30.18,30.18,0,0,1,3.25-13.15q3.24-6.75,11.25-12.28t21.58-9.25q13.58-3.72,34.22-3.72v-5.15q0-10.65-4.35-15.4T1443.94,460a32.75,32.75,0,0,0-10.44,1.39,47.56,47.56,0,0,0-7.25,3.13q-3.18,1.74-6.2,3.14a17.17,17.17,0,0,1-7.19,1.39,10.88,10.88,0,0,1-6.33-1.8,13.29,13.29,0,0,1-4.11-4.47l-6.5-11.25a73.19,73.19,0,0,1,24.19-14.32,84.77,84.77,0,0,1,28.47-4.7,52,52,0,0,1,19.66,3.54,42.26,42.26,0,0,1,14.85,9.86,43.11,43.11,0,0,1,9.34,15,54.1,54.1,0,0,1,3.25,19v75.17Zm-41.3-21.93a28.59,28.59,0,0,0,12.18-2.43,37.18,37.18,0,0,0,10.56-7.89V506.37a92.84,92.84,0,0,0-17.75,1.4,43.08,43.08,0,0,0-11,3.51,13.48,13.48,0,0,0-5.63,4.8,11.47,11.47,0,0,0-1.56,5.85q0,6.21,3.36,8.72T1437.91,533.16Z" transform="translate(-290 -320.63)"/><path class="cls-3" d="M1565.74,586.29a12.89,12.89,0,0,1-4,5.28c-1.54,1.12-4,1.68-7.42,1.68h-26.91l23.2-48.72-48-109.73h31.78a10.11,10.11,0,0,1,6.49,1.86,9.9,9.9,0,0,1,3.25,4.4l19.72,51.85a113.73,113.73,0,0,1,4.53,14.39c.77-2.48,1.62-4.91,2.55-7.31s1.81-4.83,2.67-7.31l17.86-51.62a8.86,8.86,0,0,1,3.65-4.46,10.44,10.44,0,0,1,5.86-1.8h29Z" transform="translate(-290 -320.63)"/><path class="cls-4" d="M911.24,633.79v14.82H882.07v82.15H864V648.61H834.72V633.79Z" transform="translate(-290 -320.63)"/><path class="cls-4" d="M1031.34,730.76h-13.95a6.09,6.09,0,0,1-3.85-1.17,6.67,6.67,0,0,1-2.18-2.92l-7.24-19.78H964l-7.24,19.78a6.39,6.39,0,0,1-2.12,2.82,5.91,5.91,0,0,1-3.85,1.27h-14l38.09-97h18.44Zm-62.77-36.61h30.92l-11.8-32.26q-.81-2.14-1.78-5.06T984,650.49c-.63,2.28-1.24,4.4-1.85,6.37s-1.19,3.69-1.77,5.17Z" transform="translate(-290 -320.63)"/><path class="cls-4" d="M1093.24,674.43h4.22a11,11,0,0,0,4.23-.7,7.16,7.16,0,0,0,2.88-2.25l26.76-33.86a9.76,9.76,0,0,1,3.52-3,11.26,11.26,0,0,1,4.66-.84h15.56l-32.66,40.31a29.81,29.81,0,0,1-3,3.15,13.68,13.68,0,0,1-3,2.08,12.94,12.94,0,0,1,4,2.28,20.8,20.8,0,0,1,3.46,3.75l33.66,45.4h-16a10,10,0,0,1-4.8-.9,7.63,7.63,0,0,1-2.65-2.65l-27.42-35.81a8.26,8.26,0,0,0-3-2.52,11.81,11.81,0,0,0-4.76-.77h-5.7v42.65h-18v-97h18Z" transform="translate(-290 -320.63)"/><path class="cls-4" d="M1286.71,730.76h-14a6.12,6.12,0,0,1-3.86-1.17,6.75,6.75,0,0,1-2.18-2.92l-7.24-19.78h-40.17l-7.24,19.78a6.37,6.37,0,0,1-2.11,2.82,5.94,5.94,0,0,1-3.86,1.27h-14l38.1-97h18.44Zm-62.77-36.61h30.91l-11.8-32.26q-.81-2.14-1.78-5.06t-1.91-6.34c-.62,2.28-1.24,4.4-1.84,6.37s-1.2,3.69-1.78,5.17Z" transform="translate(-290 -320.63)"/><path class="cls-4" d="M1391.12,633.79v14.35h-43v28.71h36.28v14.41h-36.28v39.5H1330v-97Z" transform="translate(-290 -320.63)"/><path class="cls-4" d="M1477.56,716.21a23.83,23.83,0,0,0,9.35-1.74,19.63,19.63,0,0,0,7-4.9,21.46,21.46,0,0,0,4.36-7.64,31.68,31.68,0,0,0,1.51-10.06V633.79h18v58.08a44.66,44.66,0,0,1-2.79,16,36.06,36.06,0,0,1-8,12.68,36.59,36.59,0,0,1-12.68,8.31,48.65,48.65,0,0,1-33.53,0,35.49,35.49,0,0,1-20.62-21,44.87,44.87,0,0,1-2.78-16V633.79h18v58a31.35,31.35,0,0,0,1.51,10.06,22,22,0,0,0,4.32,7.68,19.22,19.22,0,0,0,6.94,4.93A23.88,23.88,0,0,0,1477.56,716.21Z" transform="translate(-290 -320.63)"/><path class="cls-4" d="M1587.47,715.87h38.83v14.89h-56.87v-97h18Z" transform="translate(-290 -320.63)"/></svg>