<svg version="1.2" xmlns="http://www.w3.org/2000/svg" viewBox="0 0 146 277" width="146" height="277">
	<title>logo</title>
	<style>
		.s0 { fill: #9e1360 } 
		.s1 { fill: #253674 } 
		.s2 { fill: #6cc6da } 
		.s3 { fill: #0b70b7 } 
	</style>
	<g id="Couche 1">
		<path id="Path 0" class="s0" d="m72.5 4c0.6 0 3.6 7.7 6.7 17.2c3.2 9.5 6.9 21.6 8.2 26.8c1.4 5.2 3.9 16.3 5.5 24.5c1.7 8.3 3.7 21.1 4.6 28.5c0.8 7.6 1.5 21.9 1.5 32.5c0 10.6-0.7 24.7-1.5 31.8c-0.8 7-2.4 16.6-3.4 21.5c-1.1 4.8-3 11.8-4.3 15.6c-1.2 3.9-2.7 7.1-3.3 7.3c-0.6 0.2-2.1-1.8-3.5-4.3c-1.4-2.6-5.2-7.2-8.5-10.2c-3.3-3-7.6-6.3-13-9l0.9-5.9c0.6-3.2 1-16.8 1-30.3c0.1-18.5-0.3-27.7-3.5-50.5l2.5-9.5c1.3-5.2 3.2-13.1 4-17.5c0.9-4.4 2.3-13.6 3.2-20.5c0.9-6.9 1.7-20.5 1.7-30.2c0.1-11.1 0.6-17.8 1.2-17.8z" />
		<path id="Path 1" class="s1" d="m51.5 66.3c0.5 0.2 1.3 1.7 1.7 3.3c0.5 1.6 1.9 8.1 3.4 14.4c1.4 6.3 3.4 17.6 4.5 25c1.1 7.4 2.3 22.1 2.6 32.5c0.4 12.1 0.1 23.2-0.6 30.5c-0.7 6.3-1.5 13.3-1.8 15.5c-0.3 2.2-1.6 8.3-2.9 13.5c-1.3 5.2-3.8 13.2-5.6 17.8c-1.8 4.5-3.7 8.2-4.3 8.2c-0.6 0-2.1-2.4-3.5-5.2c-1.4-2.7-4.6-7-7.3-9.4c-2.6-2.4-7.7-5.8-11.5-7.6c-3.9-1.8-10.5-3.8-24.9-6.3l5.2-7c2.8-3.8 7.2-10.4 9.8-14.5c2.5-4.1 7.5-13.6 11-21c3.6-7.4 8.1-18.2 10.1-24c2.1-5.8 4.8-14.8 6.1-20c1.3-5.2 3.1-13.5 3.9-18.5c0.9-5 1.9-13.2 2.3-18.3c0.5-5.5 1.2-9.1 1.8-8.9z" />
		<path id="Path 2" class="s2" d="m99.9 121.5c0.4 1.1 1.7 4.3 3 7c1.2 2.8 4.3 11.1 6.8 18.5c2.4 7.4 5.8 18.9 7.4 25.5c1.6 6.6 3.2 14.7 3.6 18c0.4 5.1 0 7.5-2.6 15.5c-1.8 5.2-5.5 14.2-8.4 20c-2.8 5.8-5.2 10.8-5.4 11.3c-0.2 0.4 2.4 0.7 5.7 0.7c3.3 0 8.1 0.6 15.3 2.5l-0.6 9c-0.3 4.9-1.3 12.6-2.2 17c-0.8 4.4-2 8.4-2.5 9q-1 1-2.7-1.5c-0.9-1.4-3.8-4.6-6.5-7.3c-2.6-2.6-7.1-5.8-9.8-7.2c-2.8-1.4-8-3.2-11.8-4.1c-4.3-1-10.5-1.5-17.7-1.4c-6.1 0.1-11.3 0.2-11.8 0.1c-0.4-0.1 1-3.8 3.2-8.4c2.1-4.5 5.6-13.1 7.8-19.2c2.2-6.1 4.8-14.2 5.8-18c1-3.8 2.2-7.4 2.6-8c0.4-0.6 2 1.2 3.6 4.2c1.5 2.9 3.2 5.1 3.8 5c0.6-0.2 2.1-3.4 3.3-7.3c1.3-3.8 3.2-10.8 4.3-15.7c1-4.8 2.6-14.4 3.4-21.5c0.8-7 1.5-20.1 1.6-29.2c0.1-9.1 0.4-15.6 0.8-14.5z" />
		<path id="Path 3" class="s3" d="m127.5 139c0.5 0 2.7 4.6 4.9 10.2c2.1 5.7 5.4 16.4 7.2 23.8c1.9 7.4 4.2 18.9 5 25.5c1.1 8.2 1.5 16.1 1.1 25c-0.3 7.2-1.2 16.2-2 20c-0.9 3.8-1.8 7.8-2.1 8.8c-0.3 0.9-1 1.7-1.6 1.7c-0.6 0-1.9-1.6-3-3.5c-1.1-1.9-4.1-4.9-6.8-6.7c-2.6-1.7-6.7-3.8-9.2-4.5c-2.5-0.7-7.3-1.3-10.8-1.3c-3.4 0-6.1-0.3-5.9-0.8c0.2-0.4 2.6-5.4 5.5-11.2c2.8-5.8 6.5-14.8 8.1-20c1.6-5.2 3.6-12.7 4.5-16.5c0.8-3.8 2.1-10.6 2.7-15c0.6-4.4 1.2-14.2 1.3-21.8c0.1-8.4 0.5-13.7 1.1-13.7z" />
	</g>
</svg>