<?xml version="1.0" standalone="no"?>
<!DOCTYPE svg PUBLIC "-//W3C//DTD SVG 20010904//EN"
 "http://www.w3.org/TR/2001/REC-SVG-20010904/DTD/svg10.dtd">
<svg version="1.0" xmlns="http://www.w3.org/2000/svg"
 width="277.000000pt" height="277.000000pt" viewBox="0 0 277.000000 277.000000"
 preserveAspectRatio="xMidYMid meet">
<metadata>
Created by potrace 1.14, written by Peter Selinger 2001-2017
</metadata>
<g transform="translate(0.000000,277.000000) scale(0.100000,-0.100000)"
fill="#000000" stroke="none">
<path d="M1375 2587 c0 -164 -9 -326 -19 -358 -2 -8 -7 -40 -10 -72 -3 -32 -8
-62 -10 -65 -2 -4 -7 -25 -10 -47 -4 -22 -18 -91 -33 -152 -26 -109 -42 -140
-44 -88 -1 14 -2 28 -3 33 -1 4 -6 23 -10 42 -4 19 -19 85 -34 145 -14 61 -25
114 -23 120 1 5 -1 6 -6 2 -4 -5 -9 -25 -9 -45 -2 -47 -13 -171 -18 -197 -2
-11 -7 -42 -11 -70 -27 -192 -109 -443 -216 -660 -27 -55 -55 -109 -62 -120
-65 -106 -107 -169 -144 -218 -25 -32 -38 -57 -31 -58 144 -5 303 -69 376
-150 17 -19 43 -58 58 -87 27 -53 28 -53 40 -30 18 31 60 143 75 198 15 54 12
41 28 123 7 37 17 69 21 72 10 6 114 -67 146 -103 19 -21 23 -34 19 -62 -11
-79 -109 -349 -169 -468 l-25 -49 41 7 c209 39 438 -41 538 -188 19 -29 34
-35 35 -14 1 4 4 23 8 42 4 19 9 46 12 60 9 46 19 145 18 188 0 24 5 42 11 42
31 0 120 -76 131 -111 10 -31 20 -22 33 29 27 103 36 185 36 312 0 144 -24
322 -59 450 -9 30 -17 62 -19 70 -4 13 -52 153 -89 258 -7 17 -14 32 -17 32
-3 0 -5 -71 -6 -158 -1 -144 -5 -211 -18 -268 -2 -12 -7 -37 -10 -55 -3 -19
-10 -47 -15 -64 l-8 -30 -8 40 c-33 182 -96 400 -172 595 -24 63 -46 135 -48
160 -9 110 -16 179 -25 230 -5 30 -12 71 -14 90 -3 19 -10 60 -16 90 -6 30
-13 66 -16 80 -27 143 -168 614 -193 642 -3 4 -6 -70 -6 -165z"/>
</g>
</svg>
