<?xml version="1.0" encoding="utf-8"?>
<svg viewBox="84.934 116.302 963.286 549.565" width="963.286" height="549.565" xmlns="http://www.w3.org/2000/svg">
  <defs>
    <clipPath clipPathUnits="userSpaceOnUse" id="clipPath256">
      <path d="m 6496.34,2177.64 c 217.73,-39.35 362.32,-247.73 322.97,-465.44 -39.34,-217.67 -247.73,-362.29 -465.43,-322.95 -217.72,39.34 -362.31,247.73 -322.96,465.44 39.35,217.69 247.75,362.28 465.42,322.95" id="path254"/>
    </clipPath>
  </defs>
  <g>
    <g id="g12" transform="matrix(0.133333, 0, 0, -0.133333, 0, 831.493347)">
      <path d="M 3095.06,1257.2 H 1560.33 v 0.47 h -259.3 c -109.36,9.95 -195.02,102.32 -195.02,214.24 v 218.74 h 454.32 v 42.22 2185.6 9.71 c 0,147.92 119.89,267.81 267.81,267.81 h 1122.33 412.4 174.27 c 61.06,0 117.1,-21.46 161.01,-57.22 57.39,-46.79 94.07,-117.99 94.07,-197.82 v -123.23 h -429.35 c 0,0 0,-1985.95 0,-2084.85 v -207.89 c 0,-140.33 -107.95,-255.34 -245.31,-266.77 3.6,-0.18 7.16,-0.54 10.8,-0.54 h -17.94 c -5.09,-0.29 -10.21,-0.47 -15.36,-0.47" style="fill:#aeadb1;fill-opacity:1;fill-rule:nonzero;stroke:none" id="path16"/>
      <path d="m 6579.16,1257.2 h -6.26 c 74.7,30.42 127.46,103.79 127.48,189.35 v 1297.34 c -0.02,85.52 -52.78,158.9 -127.48,189.32 h 6.26 c 104.39,0 189.33,-84.94 189.33,-189.32 V 1446.55 c 0,-104.43 -84.94,-189.35 -189.33,-189.35" style="fill:#aeadb1;fill-opacity:1;fill-rule:nonzero;stroke:none" id="path18"/>
      <path d="m 6496.05,2933.21 c 104.4,0 189.33,-84.94 189.33,-189.32 V 1446.55 c 0,-104.43 -84.93,-189.35 -189.33,-189.35 h -838.37 c -104.41,0 -189.35,84.92 -189.35,189.35 v 1297.34 c 0,104.38 84.94,189.32 189.35,189.32 h 838.37" style="fill:#ffffff;fill-opacity:1;fill-rule:nonzero;stroke:none" id="path20"/>
      <path d="m 6496.05,2933.21 v -15 c 48.09,0 91.59,-19.52 123.21,-51.12 31.6,-31.63 51.11,-75.12 51.12,-123.2 V 1446.55 c -0.01,-48.11 -19.52,-91.61 -51.12,-123.23 -31.62,-31.6 -75.12,-51.12 -123.21,-51.12 h -838.37 c -48.1,0 -91.6,19.52 -123.22,51.12 -31.61,31.62 -51.13,75.12 -51.13,123.23 v 1297.34 c 0,48.08 19.52,91.57 51.13,123.2 31.62,31.6 75.12,51.12 123.22,51.12 h 838.37 v 15 15 h -838.37 c -112.72,-0.03 -204.32,-91.62 -204.35,-204.32 V 1446.55 c 0.03,-112.74 91.63,-204.33 204.35,-204.35 h 838.37 c 112.71,0.02 204.3,91.61 204.33,204.35 v 1297.34 c -0.03,112.69 -91.62,204.29 -204.33,204.32 v -15" style="fill:#3e3d3f;fill-opacity:1;fill-rule:nonzero;stroke:none" id="path22"/>
      <path d="m 5571.18,1525.86 h 1007.59 v 1241.3 H 5571.18 Z" style="fill-opacity: 1; fill-rule: nonzero; stroke: none; fill: rgb(77, 179, 181);" id="path24"/>
      <path d="m 6074.97,1456.35 c -30.67,0 -55.63,-24.82 -55.63,-55.61 0,-30.74 24.96,-55.68 55.63,-55.68 30.8,0 55.66,24.94 55.66,55.68 0,30.79 -24.86,55.61 -55.66,55.61" style="fill:#ffffff;fill-opacity:1;fill-rule:nonzero;stroke:none" id="path26"/>
      <path d="m 6074.97,1456.35 v 15 c -38.93,0 -70.63,-31.51 -70.63,-70.61 0.02,-39.04 31.65,-70.66 70.63,-70.68 19.49,-0.01 37.26,7.94 50,20.71 12.75,12.75 20.67,30.52 20.66,49.97 0.01,19.47 -7.91,37.24 -20.68,49.96 -12.74,12.76 -30.51,20.66 -49.98,20.65 v -15 -15 c 22.56,-0.02 40.65,-18.09 40.66,-40.61 0,-11.29 -4.52,-21.36 -11.89,-28.77 -7.4,-7.38 -17.46,-11.9 -28.77,-11.91 -11.23,0 -21.3,4.52 -28.71,11.92 -7.39,7.41 -11.92,17.49 -11.93,28.76 0.01,11.3 4.54,21.34 11.92,28.73 7.4,7.36 17.47,11.87 28.72,11.88 v 15" style="fill:#3e3d3f;fill-opacity:1;fill-rule:nonzero;stroke:none" id="path28"/>
      <path d="m 5734.25,2241.64 c 0,-182.18 147.62,-329.83 329.78,-329.83 182.14,0 329.8,147.65 329.8,329.83 0,182.12 -147.66,329.79 -329.8,329.79 -182.16,0 -329.78,-147.67 -329.78,-329.79" style="fill:#9fd450;fill-opacity:1;fill-rule:nonzero;stroke:none" id="path30"/>
      <path d="m 5734.25,2241.64 h -15 c 0.01,-190.46 154.32,-344.82 344.78,-344.82 190.43,0 344.79,154.35 344.8,344.82 -0.01,190.41 -154.37,344.78 -344.8,344.79 -190.46,-0.01 -344.77,-154.38 -344.78,-344.79 h 15 15 c 0.01,86.97 35.2,165.57 92.18,222.58 57.01,56.99 135.61,92.2 222.6,92.21 86.98,-0.01 165.58,-35.22 222.6,-92.21 56.99,-57.01 92.19,-135.62 92.2,-222.58 -0.01,-87 -35.21,-165.61 -92.21,-222.62 -57.01,-57 -135.61,-92.2 -222.59,-92.21 -86.99,0.01 -165.59,35.21 -222.6,92.21 -56.98,57.01 -92.17,135.62 -92.18,222.62 h -15" style="fill:#3e3d3f;fill-opacity:1;fill-rule:nonzero;stroke:none" id="path32"/>
      <path d="m 6064.11,2241.64 v 361.97 c 200.91,0 364.02,-161.64 366.47,-361.97 h -366.47" style="fill:#ffffff;fill-opacity:1;fill-rule:nonzero;stroke:none" id="path34"/>
      <path d="m 6064.11,2241.64 h 15 v 361.97 h -15 v -15 c 192.68,0.01 349.13,-155.03 351.47,-347.15 l 15,0.18 v 15 h -366.47 v -15 h 15 -15 v -15 h 381.65 l -0.19,15.18 c -2.55,208.55 -172.32,376.78 -381.46,376.79 h -15 v -391.97 h 15 v 15" style="fill:#3e3d3f;fill-opacity:1;fill-rule:nonzero;stroke:none" id="path36"/>
      <path d="m 6393.88,2243.67 v -2.03 c 0,-182.18 -147.65,-329.83 -329.77,-329.83 -182.18,0 -329.85,147.65 -329.85,329.83 l 0.12,2.03 h 659.5" style="fill:#54bfd3;fill-opacity:1;fill-rule:nonzero;stroke:none" id="path38"/>
      <path d="m 6393.88,2243.67 h -15 v -2.03 c -0.01,-87 -35.22,-165.61 -92.2,-222.62 -57.01,-57 -135.61,-92.2 -222.57,-92.21 -87,0.01 -165.61,35.22 -222.64,92.21 -57,57.01 -92.2,135.63 -92.21,222.62 h -15 l 14.97,-0.86 0.12,2.03 -14.97,0.86 v -15 h 659.5 v 15 h -15 15 v 15 h -673.67 l -0.95,-16.59 v -0.44 c 0.01,-190.47 154.39,-344.82 344.85,-344.82 190.41,0 344.76,154.35 344.76,344.82 v 2.03 15 h -14.99 v -15" style="fill:#3e3d3f;fill-opacity:1;fill-rule:nonzero;stroke:none" id="path40"/>
      <path d="m 6064.11,2243.28 277.61,277.68 c 154.06,-154.11 155.13,-403.17 3.41,-558.67 l -281.02,280.99" style="fill:#f7d85c;fill-opacity:1;fill-rule:nonzero;stroke:none" id="path42"/>
      <path d="m 6064.11,2243.28 10.61,-10.61 277.61,277.68 -10.61,10.61 -10.61,-10.61 c 74.7,-74.74 111.96,-172.53 111.98,-270.46 -0.01,-96.48 -36.23,-192.83 -108.7,-267.12 l 10.74,-10.48 10.6,10.61 -281.01,280.99 -10.61,-10.61 10.61,-10.61 -10.61,10.61 -10.61,-10.61 291.75,-291.72 10.61,10.87 c 78.11,80.05 117.25,184.12 117.23,288.07 0.02,105.5 -40.26,211.15 -120.76,291.67 l -10.61,10.61 -298.82,-298.89 10.6,-10.61 10.61,10.61" style="fill:#3e3d3f;fill-opacity:1;fill-rule:nonzero;stroke:none" id="path44"/>
      <path d="m 6063.94,2241.29 -164.89,-322.35 c -178.84,91.54 -250.42,309.76 -161.33,489.22 l 326.22,-166.87" style="fill:#ffffff;fill-opacity:1;fill-rule:nonzero;stroke:none" id="path46"/>
      <path d="m 6063.94,2241.29 -13.36,6.83 -164.88,-322.34 13.35,-6.84 6.84,13.36 c -121.57,62.2 -191.43,185.41 -191.45,313.22 0.01,52.53 11.8,105.79 36.72,155.97 l -13.44,6.67 -6.83,-13.35 326.21,-166.88 6.84,13.36 -13.36,6.83 13.36,-6.83 6.83,13.35 -339.73,173.79 -6.75,-13.6 c -27.02,-54.39 -39.85,-112.29 -39.85,-169.31 -0.02,-138.65 75.87,-272.41 207.78,-339.93 l 13.35,-6.84 178.55,349.06 -13.35,6.83 -6.83,-13.35" style="fill:#3e3d3f;fill-opacity:1;fill-rule:nonzero;stroke:none" id="path48"/>
      <path d="m 6064.42,2243.67 117.69,-364.39 c -202.19,-65.3 -418.95,44.35 -486.48,245.23 l 368.79,119.16" style="fill:#f05a78;fill-opacity:1;fill-rule:nonzero;stroke:none" id="path50"/>
      <path d="m 6064.42,2243.67 -14.27,-4.61 117.68,-364.39 14.28,4.61 -4.61,14.27 c -38.09,-12.3 -76.66,-18.13 -114.6,-18.13 -155.84,0.01 -300.88,98.58 -353.06,253.87 l -14.22,-4.78 4.61,-14.27 368.8,119.16 -4.61,14.27 -14.27,-4.61 14.27,4.61 -4.61,14.28 -383.24,-123.83 4.84,-14.39 c 56.43,-167.8 213.05,-274.32 381.49,-274.31 41.02,0 82.73,6.31 123.82,19.58 l 14.27,4.61 -126.91,392.95 -14.27,-4.61 4.61,-14.28" style="fill:#3e3d3f;fill-opacity:1;fill-rule:nonzero;stroke:none" id="path52"/>
      <path d="m 5934.46,2243.67 c 0,-71.63 58.08,-129.66 129.65,-129.66 71.6,0 129.58,58.03 129.58,129.66 0,71.52 -57.98,129.64 -129.58,129.64 -71.57,0 -129.65,-58.12 -129.65,-129.64" style="fill-opacity: 1; fill-rule: nonzero; stroke: none; fill: rgb(77, 179, 181);" id="path54"/>
      <path d="m 5934.46,2243.67 h -15 c 0.01,-79.92 64.79,-144.65 144.65,-144.66 79.89,0.01 144.58,64.75 144.58,144.66 -0.01,79.81 -64.67,144.62 -144.58,144.64 -79.87,-0.02 -144.63,-64.82 -144.65,-144.64 h 15 15 c 0.01,31.66 12.82,60.23 33.59,81.04 20.8,20.78 49.38,33.59 81.06,33.6 31.7,-0.01 60.25,-12.82 81.03,-33.6 20.76,-20.8 33.54,-49.37 33.55,-81.04 -0.01,-31.73 -12.8,-60.3 -33.55,-81.09 -20.78,-20.76 -49.32,-33.56 -81.03,-33.57 -31.69,0.01 -60.26,12.81 -81.06,33.58 -20.77,20.79 -33.58,49.36 -33.59,81.08 h -15" style="fill:#3e3d3f;fill-opacity:1;fill-rule:nonzero;stroke:none" id="path56"/>
      <path d="m 5694.12,1731.72 h 668.63 v -41.45 h -668.63 v 41.45" style="fill:#ffffff;fill-opacity:1;fill-rule:nonzero;stroke:none" id="path58"/>
      <path d="m 6257.8,1616.21 h -563.68 v 41.44 h 563.68 v -41.44" style="fill:#ffffff;fill-opacity:1;fill-rule:nonzero;stroke:none" id="path60"/>
      <path d="m 5580.82,1257.2 h -47.97 c -128.73,0 -233.47,104.7 -233.47,233.49 v 1638.32 c 0,128.71 -19.74,224.5 108.99,224.5 h 99.31 c 93.93,0 170.08,-76.16 170.08,-170.08 v -235.22 h -20.08 c -112.72,-0.03 -204.32,-91.62 -204.35,-204.32 V 1446.55 c 0.02,-85.56 52.78,-158.94 127.49,-189.35" style="fill:#aeadb1;fill-opacity:1;fill-rule:nonzero;stroke:none" id="path62"/>
      <path d="m 5757.34,1272.2 h -99.66 c -48.1,0 -91.6,19.52 -123.22,51.12 -31.61,31.62 -51.13,75.12 -51.13,123.23 v 1297.34 c 0,48.08 19.52,91.57 51.13,123.2 31.62,31.6 75.12,51.12 123.22,51.12 h 20.08 v -151.05 h -106.58 v -1241.3 h 352.59 v -3.39 c 0,-129.88 -66.08,-209.19 -166.43,-250.27" style="fill:#dbdbdb;fill-opacity:1;fill-rule:nonzero;stroke:none" id="path64"/>
      <path d="m 5713.4,1257.2 h -132.58 c -74.71,30.41 -127.47,103.79 -127.49,189.35 v 1297.34 c 0.03,112.7 91.63,204.29 204.35,204.32 h 20.08 v -30 h -20.08 c -48.1,0 -91.6,-19.52 -123.22,-51.12 -31.61,-31.63 -51.13,-75.12 -51.13,-123.2 V 1446.55 c 0,-48.11 19.52,-91.61 51.13,-123.23 31.62,-31.6 75.12,-51.12 123.22,-51.12 h 99.66 c -14.01,-5.74 -28.68,-10.73 -43.94,-15" style="fill:#353435;fill-opacity:1;fill-rule:nonzero;stroke:none" id="path66"/>
      <path d="m 5923.77,1525.86 h -352.59 v 1241.3 h 106.58 l -0.02,-632.66 -1.17,-0.38 1.17,-3.5 -0.01,-563.77 h 246.04 v -40.99" style="fill-opacity: 1; fill-rule: nonzero; stroke: none; fill: rgb(69, 157, 158);" id="path68"/>
      <path d="m 5677.74,2130.62 -1.17,3.5 1.17,0.38 v -3.88" style="fill:#353435;fill-opacity:1;fill-rule:nonzero;stroke:none" id="path70"/>
      <path d="m 3241.03,3961.13 c 0,118.59 96.09,214.66 214.66,214.66 44.72,0 86.24,-13.65 120.62,-37.02 -43.92,35.76 -99.95,57.22 -161.02,57.22 H 3241.03 2828.62 1706.3 c -147.92,0 -267.81,-119.89 -267.81,-267.81 v -9.7 -2185.61 -475.67 h 1534.72 c 147.9,0 267.82,119.86 267.82,267.78 v 207.89 c 0,98.9 0,2069.33 0,2201.67 v 26.59" style="fill:#ffffff;fill-opacity:1;fill-rule:nonzero;stroke:none" id="path72"/>
      <path d="m 3241.03,3961.13 h 14.99 c 0.01,55.2 22.32,105.02 58.48,141.19 36.18,36.15 86,58.46 141.19,58.47 41.65,-0.01 80.19,-12.69 112.18,-34.43 6.63,-4.5 15.68,-2.98 20.47,3.45 4.78,6.42 3.65,15.53 -2.56,20.59 -46.46,37.85 -105.88,60.6 -170.49,60.59 H 3241.03 2828.62 1706.3 c -156.21,0 -282.81,-126.6 -282.81,-282.81 v -9.7 -2185.61 -475.67 c 0,-3.95 1.6,-7.82 4.39,-10.61 2.79,-2.79 6.66,-4.39 10.61,-4.39 h 1534.72 c 156.19,0 282.81,126.57 282.81,282.78 v 207.89 c 0,98.9 0,2069.33 0,2201.67 v 26.59 h -14.99 -15 v -26.59 c -0.01,-132.34 -0.01,-2102.77 0,-2201.67 v -207.89 c -0.01,-69.87 -28.28,-132.97 -74.05,-178.75 -45.8,-45.77 -108.91,-74.03 -178.77,-74.03 H 1453.48 l 0.01,460.67 v 2185.61 9.7 c 0,69.87 28.27,132.98 74.04,178.77 45.79,45.77 108.9,74.04 178.77,74.04 h 1122.32 412.41 174.26 c 57.52,0 110.17,-20.18 151.55,-53.85 l 9.47,11.63 8.43,12.4 c -36.76,25 -81.26,39.63 -129.05,39.62 -126.86,-0.01 -229.66,-102.79 -229.66,-229.66 h 15" style="fill:#3e3d3f;fill-opacity:1;fill-rule:nonzero;stroke:none" id="path74"/>
      <path d="m 3241.03,3961.13 v -26.59 h 429.34 v 6.41 c 0,79.83 -36.68,151.03 -94.06,197.82 -34.38,23.37 -75.9,37.02 -120.62,37.02 -118.57,0 -214.66,-96.07 -214.66,-214.66" style="fill:#f2f2f2;fill-opacity:1;fill-rule:nonzero;stroke:none" id="path76"/>
      <path d="m 3241.03,3961.13 h -15 v -26.59 c 0,-3.95 1.59,-7.81 4.39,-10.61 2.79,-2.79 6.66,-4.39 10.61,-4.39 h 429.34 c 3.95,0 7.81,1.6 10.61,4.39 2.79,2.8 4.39,6.66 4.39,10.61 v 6.41 c 0.01,84.49 -38.87,159.96 -99.58,209.44 l -1.05,0.78 c -36.76,25 -81.26,39.63 -129.05,39.62 -126.86,-0.01 -229.66,-102.79 -229.66,-229.66 h 15 14.99 c 0.01,55.2 22.32,105.02 58.48,141.19 36.18,36.15 86,58.46 141.19,58.47 41.65,-0.01 80.19,-12.69 112.18,-34.43 l 8.44,12.41 -9.48,-11.63 c 54.05,-44.09 88.53,-111.02 88.54,-186.19 v -6.41 h 15 v 15 h -414.35 v 11.59 h -14.99" style="fill:#3e3d3f;fill-opacity:1;fill-rule:nonzero;stroke:none" id="path78"/>
      <path d="m 2770.78,3529.71 h -104.33 v 46.48 h 104.33 v -46.48" style="fill:#ceced0;fill-opacity:1;fill-rule:nonzero;stroke:none" id="path80"/>
      <path d="m 2770.78,3308.34 h -104.33 v 46.47 h 104.33 v -46.47" style="fill:#ceced0;fill-opacity:1;fill-rule:nonzero;stroke:none" id="path82"/>
      <path d="m 2770.78,3086.98 h -104.33 v 46.5 h 104.33 v -46.5" style="fill:#ceced0;fill-opacity:1;fill-rule:nonzero;stroke:none" id="path84"/>
      <path d="m 2770.78,3751.03 h -104.33 v 46.5 h 104.33 v -46.5" style="fill:#ceced0;fill-opacity:1;fill-rule:nonzero;stroke:none" id="path86"/>
      <path d="m 2770.78,2865.64 h -104.33 v 46.49 h 104.33 v -46.49" style="fill:#ceced0;fill-opacity:1;fill-rule:nonzero;stroke:none" id="path88"/>
      <path d="m 2770.78,2644.3 h -104.33 v 46.49 h 104.33 v -46.49" style="fill:#ceced0;fill-opacity:1;fill-rule:nonzero;stroke:none" id="path90"/>
      <path d="m 2770.78,2422.97 h -104.33 v 46.48 h 104.33 v -46.48" style="fill:#ceced0;fill-opacity:1;fill-rule:nonzero;stroke:none" id="path92"/>
      <path d="m 2770.78,2201.63 h -104.33 v 46.48 h 104.33 v -46.48" style="fill:#ceced0;fill-opacity:1;fill-rule:nonzero;stroke:none" id="path94"/>
      <path d="m 2770.78,2201.62 h -104.33 v 46.48 h 104.33 v -46.48" style="fill:#ceced0;fill-opacity:1;fill-rule:nonzero;stroke:none" id="path96"/>
      <path d="m 2770.78,1980.28 h -104.33 v 46.49 h 104.33 v -46.49" style="fill:#ceced0;fill-opacity:1;fill-rule:nonzero;stroke:none" id="path98"/>
      <path d="m 2770.78,1758.95 h -104.33 v 46.49 h 104.33 v -46.49" style="fill:#ceced0;fill-opacity:1;fill-rule:nonzero;stroke:none" id="path100"/>
      <path d="m 2893.35,3867.14 h -68.49 V 1486.08 l 68.49,-36.71 v 2417.77" style="fill:#ceced0;fill-opacity:1;fill-rule:nonzero;stroke:none" id="path102"/>
      <path d="m 2791.85,1471.9 v 218.75 H 984.16 v -218.74 c 0,-111.92 85.66,-204.29 195.02,-214.24 h 1827.33 c -118.59,0 -214.66,95.68 -214.66,214.23" style="fill:#ffffff;fill-opacity:1;fill-rule:nonzero;stroke:none" id="path104"/>
      <path d="m 2791.85,1471.9 h 14.99 v 218.75 c 0,3.95 -1.6,7.82 -4.39,10.61 -2.79,2.79 -6.66,4.39 -10.6,4.39 H 984.16 c -3.949,0 -7.812,-1.6 -10.605,-4.39 -2.797,-2.79 -4.395,-6.66 -4.395,-10.61 v -218.74 c 0.035,-119.73 91.57,-218.51 208.66,-229.18 l 1.36,-0.06 h 1827.33 c 3.95,0 7.82,1.6 10.61,4.39 2.79,2.79 4.39,6.66 4.39,10.61 0,3.95 -1.6,7.81 -4.39,10.6 -2.79,2.8 -6.66,4.4 -10.61,4.4 -55.22,0 -105.05,22.23 -141.21,58.28 -36.14,36.07 -58.45,85.77 -58.46,140.95 h -14.99 -15 c -0.01,-63.37 25.72,-120.79 67.26,-162.19 41.52,-41.44 99.03,-67.05 162.4,-67.04 3.95,0 7.82,1.6 10.61,4.39 2.79,2.79 4.39,6.66 4.39,10.61 0,3.95 -1.6,7.81 -4.39,10.6 -2.79,2.8 -6.66,4.4 -10.61,4.4 H 1179.18 v -15 l 1.36,14.93 c -101.62,9.23 -181.415,95.2 -181.38,199.31 v 203.74 h 1777.68 l 0.01,-203.75 h 15" style="fill:#3e3d3f;fill-opacity:1;fill-rule:nonzero;stroke:none" id="path106"/>
      <path d="m 1779.14,1521.81 v 66.94 h 53 v -66.94 h -53" style="fill:#afb1b4;fill-opacity:1;fill-rule:nonzero;stroke:none" id="path108"/>
      <path d="m 1658.79,1521.81 v 66.94 h 53 v -66.94 h -53" style="fill:#afb1b4;fill-opacity:1;fill-rule:nonzero;stroke:none" id="path110"/>
      <path d="m 1538.43,1521.81 v 66.94 h 53.02 v -66.94 h -53.02" style="fill:#afb1b4;fill-opacity:1;fill-rule:nonzero;stroke:none" id="path112"/>
      <path d="m 1418.09,1521.81 v 66.94 h 52.99 v -66.94 h -52.99" style="fill:#afb1b4;fill-opacity:1;fill-rule:nonzero;stroke:none" id="path114"/>
      <path d="m 1297.72,1521.81 v 66.94 h 53.02 v -66.94 h -53.02" style="fill:#afb1b4;fill-opacity:1;fill-rule:nonzero;stroke:none" id="path116"/>
      <path d="m 1177.39,1521.81 v 66.94 h 52.98 v -66.94 h -52.98" style="fill:#afb1b4;fill-opacity:1;fill-rule:nonzero;stroke:none" id="path118"/>
      <path d="m 1057.03,1521.81 v 66.94 h 52.99 v -66.94 h -52.99" style="fill:#afb1b4;fill-opacity:1;fill-rule:nonzero;stroke:none" id="path120"/>
      <path d="m 2501.25,1521.81 v 66.94 h 52.99 v -66.94 h -52.99" style="fill:#afb1b4;fill-opacity:1;fill-rule:nonzero;stroke:none" id="path122"/>
      <path d="m 2380.9,1521.81 v 66.94 h 53 v -66.94 h -53" style="fill:#afb1b4;fill-opacity:1;fill-rule:nonzero;stroke:none" id="path124"/>
      <path d="m 2621.6,1521.81 v 66.94 h 53 v -66.94 h -53" style="fill:#afb1b4;fill-opacity:1;fill-rule:nonzero;stroke:none" id="path126"/>
      <path d="m 2260.54,1521.81 v 66.94 h 53.01 v -66.94 h -53.01" style="fill:#afb1b4;fill-opacity:1;fill-rule:nonzero;stroke:none" id="path128"/>
      <path d="m 2140.2,1521.81 v 66.94 h 52.99 v -66.94 h -52.99" style="fill:#afb1b4;fill-opacity:1;fill-rule:nonzero;stroke:none" id="path130"/>
      <path d="m 2019.83,1521.81 v 66.94 h 53.02 v -66.94 h -53.02" style="fill:#afb1b4;fill-opacity:1;fill-rule:nonzero;stroke:none" id="path132"/>
      <path d="m 1899.5,1521.81 v 66.94 h 52.99 v -66.94 h -52.99" style="fill:#afb1b4;fill-opacity:1;fill-rule:nonzero;stroke:none" id="path134"/>
      <path d="m 2030.57,3638.98 c 65.32,-60.52 158.97,38.09 92.72,99.89 -66.58,61.87 -158.11,-39.01 -92.72,-99.89 z m -28.47,-30.57 c -106.42,98.8 43.06,260.12 149.68,161.14 106.53,-99.32 -43.21,-259.86 -149.68,-161.14" style="fill:#77d2eb;fill-opacity:1;fill-rule:nonzero;stroke:none" id="path136"/>
      <path d="m 2040.37,1944.09 c -30.95,-21.15 -38.89,-63.56 -17.68,-94.58 21.21,-31.02 63.55,-38.94 94.5,-17.78 74.18,50.73 -2.49,163.18 -76.82,112.36 z m -52.33,-118.25 c -82.02,120 99.47,244.08 181.51,124.08 81.99,-119.92 -99.5,-244.01 -181.51,-124.08" style="fill:#f05a78;fill-opacity:1;fill-rule:nonzero;stroke:none" id="path138"/>
      <path d="m 2076.49,2457.19 c -31.01,-21.22 -39,-63.61 -17.79,-94.62 21.23,-31.07 63.59,-38.91 94.6,-17.71 74.15,50.7 -2.46,163.14 -76.81,112.33 z m -52.32,-118.24 c -82,119.97 99.48,244.05 181.49,124.09 81.99,-119.91 -99.49,-243.99 -181.49,-124.09" style="fill:#f05a78;fill-opacity:1;fill-rule:nonzero;stroke:none" id="path140"/>
      <path d="m 1970.36,2765.15 c 50.75,-74.24 163.18,2.49 112.35,76.79 -50.7,74.17 -163.1,-2.57 -112.35,-76.79 z m -34.61,-23.68 c -81.97,119.9 99.6,244.04 181.57,124.15 82.04,-119.98 -99.53,-244.13 -181.57,-124.15" style="fill:#77d2eb;fill-opacity:1;fill-rule:nonzero;stroke:none" id="path142"/>
      <path d="m 1652.33,2395.35 c 50.74,-74.19 163.19,2.62 112.42,76.88 -50.77,74.21 -163.23,-2.56 -112.42,-76.88 z m -34.55,-23.63 c -82.04,119.99 99.53,244.14 181.56,124.16 81.98,-119.88 -99.59,-244.03 -181.56,-124.16" style="fill:#77d2eb;fill-opacity:1;fill-rule:nonzero;stroke:none" id="path144"/>
      <path d="m 1750.46,1955.1 c 50.78,-74.26 163.15,2.47 112.34,76.82 -50.77,74.25 -163.14,-2.49 -112.34,-76.82 z m -34.62,-23.67 c -82,119.95 99.52,244.07 181.54,124.14 82,-119.94 -99.56,-244.05 -181.54,-124.14" style="fill:#77d2eb;fill-opacity:1;fill-rule:nonzero;stroke:none" id="path146"/>
      <path d="m 1882.21,3218.66 c 50.79,-74.25 163.2,2.48 112.35,76.84 -50.7,74.16 -163.1,-2.58 -112.35,-76.84 z m -34.5,-23.59 c -81.96,119.89 99.49,243.96 181.44,124.08 82.06,-120.01 -99.39,-244.07 -181.44,-124.08" style="fill:#77d2eb;fill-opacity:1;fill-rule:nonzero;stroke:none" id="path148"/>
      <path d="m 2496.95,2769.94 c -74.24,-50.75 2.34,-163.12 76.76,-112.26 74.18,50.74 -2.51,163.03 -76.76,112.26 z m 100.49,-146.95 c -119.96,-82.04 -244.3,99.56 -124.22,181.66 119.9,81.97 244.11,-99.69 124.22,-181.66" style="fill:#f05a78;fill-opacity:1;fill-rule:nonzero;stroke:none" id="path150"/>
      <path d="m 2249,3095.23 c -74.17,-50.7 2.64,-163.18 76.87,-112.43 74.26,50.76 -2.44,163.33 -76.87,112.43 z m 100.48,-146.95 c -119.88,-81.96 -243.96,99.52 -124.08,181.49 120.06,82.08 244.14,-99.4 124.08,-181.49" style="fill:#f05a78;fill-opacity:1;fill-rule:nonzero;stroke:none" id="path152"/>
      <path d="m 2126.98,1976.41 -83.47,7.01 27.75,330.96 83.53,-7.03 -27.81,-330.94" style="fill:#f05a78;fill-opacity:1;fill-rule:nonzero;stroke:none" id="path154"/>
      <path d="m 1834,2092.16 -81.48,-19.1 -62.74,267.87 81.54,19.17 62.68,-267.94" style="fill:#77d2eb;fill-opacity:1;fill-rule:nonzero;stroke:none" id="path156"/>
      <path d="m 1796.79,2484.43 -62.2,56.17 200.96,223.15 62.37,-56.16 -201.13,-223.16" style="fill:#77d2eb;fill-opacity:1;fill-rule:nonzero;stroke:none" id="path158"/>
      <path d="m 2061.04,2902.95 -81.94,-17.54 -60.31,280.68 81.96,17.49 60.29,-280.63" style="fill:#77d2eb;fill-opacity:1;fill-rule:nonzero;stroke:none" id="path160"/>
      <path d="m 2013.66,3330.3 -81.03,21.28 70.57,269.84 81.05,-21.23 -70.59,-269.89" style="fill:#77d2eb;fill-opacity:1;fill-rule:nonzero;stroke:none" id="path162"/>
      <path d="m 2447.24,2759.12 -132.82,175.62 66.98,50.41 132.79,-175.56 -66.95,-50.47" style="fill:#f05a78;fill-opacity:1;fill-rule:nonzero;stroke:none" id="path164"/>
      <path d="m 2321.79,3387.6 c 50.74,-74.23 163.15,2.49 112.33,76.8 -50.72,74.16 -163.11,-2.58 -112.33,-76.8 z m -34.55,-23.64 c -81.99,119.92 99.47,244 181.47,124.09 82.04,-120 -99.42,-244.06 -181.47,-124.09" style="fill:#f05a78;fill-opacity:1;fill-rule:nonzero;stroke:none" id="path166"/>
      <path d="m 2347.46,3122.98 -80.22,24.06 60.77,203.32 80.18,-24.13 -60.73,-203.25" style="fill:#f05a78;fill-opacity:1;fill-rule:nonzero;stroke:none" id="path168"/>
      <path d="m 2208.76,2431.28 -48.77,68.21 279.54,199.47 48.6,-68.17 -279.37,-199.51" style="fill:#f05a78;fill-opacity:1;fill-rule:nonzero;stroke:none" id="path170"/>
      <path d="m 2632.49,3213.28 c 0,77.48 62.77,140.22 140.21,140.22 h 2654.67 c 77.42,0 140.22,-62.74 140.22,-140.22 l -0.04,-1662.23 H 2632.44 l 0.05,1662.23" style="fill:#f2f2f2;fill-opacity:1;fill-rule:nonzero;stroke:none" id="path172"/>
      <path d="m 2632.49,3213.28 h 15 c 0.01,34.65 13.99,65.86 36.67,88.56 22.71,22.68 53.91,36.66 88.54,36.66 h 2654.67 c 34.61,0 65.82,-13.98 88.53,-36.66 22.69,-22.7 36.68,-53.91 36.69,-88.56 l -0.04,-1647.23 H 2647.44 l 0.05,1647.23 h -15 -15 l -0.05,-1662.23 c 0,-3.95 1.6,-7.81 4.39,-10.6 2.8,-2.8 6.66,-4.4 10.61,-4.4 h 2935.11 c 8.28,0 15,6.72 15,15 l 0.04,1662.23 c -0.01,85.77 -69.52,155.22 -155.22,155.22 H 2772.7 c -85.72,0 -155.2,-69.45 -155.21,-155.22 h 15" style="fill:#3e3d3f;fill-opacity:1;fill-rule:nonzero;stroke:none" id="path174"/>
      <path d="m 2431.64,1551.05 v -60.72 c 0,-168.99 136.99,-233.13 306,-233.13 h 2724.74 c 169.01,0 306,64.14 306,233.13 v 60.72 H 2431.64" style="fill:#f2f2f2;fill-opacity:1;fill-rule:nonzero;stroke:none" id="path176"/>
      <path d="m 2431.64,1551.05 h -15 v -60.72 c -0.01,-44.25 9.01,-82.5 25.74,-114.64 25.07,-48.3 67.18,-82.03 118.44,-103.15 51.33,-21.19 112.02,-30.32 176.82,-30.34 h 2724.74 c 86.35,0.06 165.6,16.17 224.73,55.74 29.51,19.77 53.83,45.6 70.53,77.75 16.72,32.14 25.75,70.39 25.74,114.64 v 60.72 c 0,3.95 -1.6,7.82 -4.4,10.61 -2.79,2.79 -6.65,4.39 -10.6,4.39 H 2431.64 c -3.95,0 -7.81,-1.6 -10.61,-4.39 -2.79,-2.79 -4.39,-6.66 -4.39,-10.61 h 15 v -15 h 3321.74 v -45.72 c -0.02,-40.24 -8.11,-73.38 -22.36,-100.8 -21.38,-41.03 -56.86,-70.01 -103.28,-89.26 -46.35,-19.19 -103.4,-28.09 -165.36,-28.07 H 2737.64 c -82.66,-0.07 -156.41,15.89 -208.02,50.65 -25.87,17.38 -46.35,39.27 -60.63,66.68 -14.24,27.42 -22.34,60.56 -22.35,100.8 v 60.72 h -15 v -15 15" style="fill:#3e3d3f;fill-opacity:1;fill-rule:nonzero;stroke:none" id="path178"/>
      <path d="M 5400.01,3128.27 H 2834.62 V 1650.32 h 2565.39 v 1477.95" style="fill-opacity: 1; fill-rule: nonzero; stroke: none; fill: rgb(77, 179, 181);" id="path180"/>
      <path d="m 5400.01,3128.27 v 15 H 2834.62 c -3.95,0 -7.82,-1.6 -10.61,-4.39 -2.79,-2.8 -4.39,-6.66 -4.39,-10.61 V 1650.32 c 0,-3.95 1.6,-7.81 4.39,-10.61 2.79,-2.79 6.66,-4.39 10.61,-4.39 h 2565.39 c 3.95,0 7.81,1.6 10.61,4.4 2.79,2.79 4.39,6.65 4.39,10.6 v 1477.95 c 0,3.95 -1.6,7.81 -4.39,10.61 -2.8,2.79 -6.66,4.39 -10.61,4.39 v -15 h -15 V 1665.32 H 2849.62 v 1447.95 h 2550.39 v 15 h -15 15" style="fill:#3e3d3f;fill-opacity:1;fill-rule:nonzero;stroke:none" id="path182"/>
      <path d="m 3650.22,2813.6 h -323.28 v 31.04 h 323.28 v -31.04" style="fill:#ffffff;fill-opacity:1;fill-rule:nonzero;stroke:none" id="path184"/>
      <path d="m 3827.59,2748.14 h -500.65 v 31.03 h 500.65 v -31.03" style="fill:#ffffff;fill-opacity:1;fill-rule:nonzero;stroke:none" id="path186"/>
      <path d="m 3749,2682.68 h -422.06 v 31.03 H 3749 v -31.03" style="fill:#ffffff;fill-opacity:1;fill-rule:nonzero;stroke:none" id="path188"/>
      <path d="m 3538.81,1859.53 h -201.18 v 240.36 h 201.18 v -240.36" style="fill:#f05a78;fill-opacity:1;fill-rule:nonzero;stroke:none" id="path190"/>
      <path d="m 3538.81,1859.53 v 15 h -186.19 v 210.36 h 171.19 v -225.36 h 15 v 15 -15 h 15 v 255.36 h -231.18 v -270.35 h 231.18 v 14.99 h -15" style="fill:#3e3d3f;fill-opacity:1;fill-rule:nonzero;stroke:none" id="path192"/>
      <path d="m 3838.97,1859.53 h -201.19 v 379.65 h 201.19 v -379.65" style="fill:#f7d85c;fill-opacity:1;fill-rule:nonzero;stroke:none" id="path194"/>
      <path d="m 3838.97,1859.53 v 15 h -186.19 v 349.65 h 171.19 v -364.65 h 15 v 15 -15 h 15 v 394.65 h -231.19 v -409.64 h 231.19 v 14.99 h -15" style="fill:#3e3d3f;fill-opacity:1;fill-rule:nonzero;stroke:none" id="path196"/>
      <path d="m 4139.16,1859.53 h -201.21 v 508.95 h 201.21 v -508.95" style="fill:#9fd450;fill-opacity:1;fill-rule:nonzero;stroke:none" id="path198"/>
      <path d="m 4139.16,1859.53 v 15 h -186.22 v 478.95 h 171.21 l 0.01,-493.95 h 15 v 15 -15 h 14.99 v 523.95 h -231.2 v -538.94 h 231.2 v 14.99 h -14.99" style="fill:#3e3d3f;fill-opacity:1;fill-rule:nonzero;stroke:none" id="path200"/>
      <path d="m 4439.32,1859.53 h -201.19 v 449.57 h 201.19 v -449.57" style="fill:#f05a78;fill-opacity:1;fill-rule:nonzero;stroke:none" id="path202"/>
      <path d="m 4439.32,1859.53 v 15 h -186.19 v 419.57 h 171.18 l 0.01,-434.57 h 15 v 15 -15 h 14.99 v 464.57 h -231.18 v -479.56 h 231.18 v 14.99 h -14.99" style="fill:#3e3d3f;fill-opacity:1;fill-rule:nonzero;stroke:none" id="path204"/>
      <path d="M 4739.49,1859.53 H 4538.3 v 729.63 h 201.19 v -729.63" style="fill:#f7d85c;fill-opacity:1;fill-rule:nonzero;stroke:none" id="path206"/>
      <path d="m 4739.49,1859.53 v 15 h -186.2 v 699.63 h 171.19 l 0.01,-714.63 h 15 v 15 -15 h 14.99 v 744.63 H 4523.3 v -759.62 h 231.18 v 14.99 h -14.99" style="fill:#3e3d3f;fill-opacity:1;fill-rule:nonzero;stroke:none" id="path208"/>
      <path d="m 5039.65,1859.53 h -201.19 v 1041.36 h 201.19 V 1859.53" style="fill:#9fd450;fill-opacity:1;fill-rule:nonzero;stroke:none" id="path210"/>
      <path d="m 5039.65,1859.53 v 15 h -186.19 v 1011.36 h 171.19 V 1859.53 h 15 v 15 -15 h 15 V 2915.89 H 4823.46 V 1844.54 h 231.19 v 14.99 h -15" style="fill:#3e3d3f;fill-opacity:1;fill-rule:nonzero;stroke:none" id="path212"/>
      <path d="m 3190.28,2803.67 h -72.07 v 32.1 h 72.07 v -32.1" style="fill:#ffffff;fill-opacity:1;fill-rule:nonzero;stroke:none" id="path214"/>
      <path d="m 3190.28,2642.45 h -72.07 v 32.11 h 72.07 v -32.11" style="fill:#ffffff;fill-opacity:1;fill-rule:nonzero;stroke:none" id="path216"/>
      <path d="m 3190.28,2481.23 h -72.07 v 32.11 h 72.07 v -32.11" style="fill:#ffffff;fill-opacity:1;fill-rule:nonzero;stroke:none" id="path218"/>
      <path d="m 3190.28,2320.01 h -72.07 v 32.11 h 72.07 v -32.11" style="fill:#ffffff;fill-opacity:1;fill-rule:nonzero;stroke:none" id="path220"/>
      <path d="m 3190.28,2158.81 h -72.07 v 32.1 h 72.07 v -32.1" style="fill:#ffffff;fill-opacity:1;fill-rule:nonzero;stroke:none" id="path222"/>
      <path d="m 3190.28,1997.61 h -72.07 v 32.1 h 72.07 v -32.1" style="fill:#ffffff;fill-opacity:1;fill-rule:nonzero;stroke:none" id="path224"/>
      <path d="m 3190.28,1836.39 h -72.07 v 32.11 h 72.07 v -32.11" style="fill:#ffffff;fill-opacity:1;fill-rule:nonzero;stroke:none" id="path226"/>
      <path d="m 3421.97,2328.88 195.29,162.07 92.72,-111.17 321.18,269.59 -9.65,11.49 -11.61,-9.5 c 0,0 134.73,-164.62 146.45,-178.93 l 9.57,-11.7 386.59,321.67 -19.18,23.06 -374.97,-312 9.59,-11.53 11.61,9.5 c -5.85,7.15 -42.47,51.89 -77.61,94.83 -17.57,21.48 -34.78,42.5 -47.59,58.16 -12.82,15.65 -21.22,25.92 -21.24,25.94 l -9.62,11.76 -309.75,-260.01 -92.62,111.03 -218.32,-181.17 19.16,-23.09" style="fill:#f2f2f2;fill-opacity:1;fill-rule:nonzero;stroke:none" id="path228"/>
      <path d="M 3222.32,2835.7 V 1836.15 H 5098 v 30 H 3252.32 v 969.55 h -29.99" style="fill:#3e3d3f;fill-opacity:1;fill-rule:nonzero;stroke:none" id="path230"/>
      <path d="m 7138.87,1636.27 -56.62,-167.95 -253.64,85.55 56.65,167.91 253.61,-85.51" style="fill:#ffffff;fill-opacity:1;fill-rule:nonzero;stroke:none" id="path232"/>
      <path d="m 7138.87,1636.27 -14.22,4.79 -51.83,-153.73 -225.2,75.95 47.06,139.49 239.39,-80.72 4.8,14.22 -14.22,4.79 14.22,-4.79 4.79,14.21 -267.82,90.3 -66.24,-196.33 282.07,-95.14 66.2,196.38 -14.21,4.79 -4.79,-14.21" style="fill:#3e3d3f;fill-opacity:1;fill-rule:nonzero;stroke:none" id="path234"/>
      <path d="m 6588.09,2266.68 c 266.89,-90.01 410.28,-379.32 320.26,-646.21 -90.02,-266.86 -379.33,-410.28 -646.21,-320.27 -266.9,90.03 -410.27,379.31 -320.27,646.23 90.01,266.85 379.34,410.26 646.22,320.25" style="fill:#ffffff;fill-opacity:1;fill-rule:nonzero;stroke:none" id="path236"/>
      <path d="m 6588.09,2266.68 -4.79,-14.21 c 206.59,-69.65 336.92,-262.4 336.93,-468.95 0,-52.44 -8.4,-105.77 -26.09,-158.25 -69.66,-206.59 -262.42,-336.93 -468.98,-336.95 -52.44,0.01 -105.76,8.4 -158.23,26.1 -206.61,69.66 -336.93,262.4 -336.95,468.96 0.01,52.44 8.4,105.76 26.1,158.25 69.65,206.58 262.43,336.92 468.99,336.93 52.43,0 105.74,-8.39 158.23,-26.09 l 4.79,14.21 4.79,14.22 c -55.59,18.75 -112.18,27.66 -167.81,27.66 -219.13,0.01 -423.5,-138.26 -497.41,-357.34 -18.76,-55.6 -27.68,-112.2 -27.67,-167.84 -0.02,-219.13 138.25,-423.45 357.35,-497.39 55.59,-18.75 112.18,-27.67 167.82,-27.67 219.12,-0.01 423.47,138.27 497.4,357.36 18.75,55.6 27.67,112.2 27.67,167.84 0.02,219.12 -138.25,423.46 -357.35,497.38 l -4.79,-14.22" style="fill:#3e3d3f;fill-opacity:1;fill-rule:nonzero;stroke:none" id="path238"/>
      <path d="m 6551.84,2159.23 c 207.55,-70.01 319.05,-294.99 249.05,-502.52 -69.98,-207.51 -294.97,-319.04 -502.51,-249.04 -207.55,69.99 -319.04,294.98 -249.04,502.51 69.99,207.53 294.99,319.03 502.5,249.05" style="fill:#77d2eb;fill-opacity:1;fill-rule:nonzero;stroke:none" id="path240"/>
      <path d="m 6551.84,2159.23 -1.6,-4.74 c 163.44,-55.12 266.55,-207.58 266.55,-371 0,-41.48 -6.64,-83.68 -20.64,-125.18 -55.1,-163.42 -207.58,-266.54 -371,-266.55 -41.49,0 -83.68,6.65 -125.17,20.64 -163.44,55.11 -266.55,207.58 -266.55,370.99 0,41.49 6.64,83.69 20.65,125.19 55.11,163.43 207.59,266.54 371.01,266.55 41.47,0 83.65,-6.64 125.15,-20.64 l 1.6,4.74 1.59,4.74 c -42.53,14.34 -85.8,21.16 -128.34,21.16 -167.6,0 -323.96,-105.75 -380.49,-273.35 -14.36,-42.55 -21.17,-85.83 -21.17,-128.39 -0.01,-167.6 105.75,-323.93 273.35,-380.46 42.53,-14.35 85.81,-21.17 128.37,-21.17 167.61,0 323.95,105.77 380.48,273.35 14.34,42.54 21.16,85.83 21.16,128.38 0.01,167.6 -105.75,323.94 -273.36,380.48 l -1.59,-4.74" style="fill:#3e3d3f;fill-opacity:1;fill-rule:nonzero;stroke:none" id="path242"/>
      <path d="m 7535.72,1561.15 c 75.23,-25.38 115.67,-106.95 90.28,-182.17 -25.39,-75.23 -106.95,-115.68 -182.16,-90.29 l -362.95,121.88 c -22.72,7.64 -34.91,32.26 -27.26,55 l 64.15,190.21 c 7.66,22.7 32.29,34.89 54.99,27.24 l 362.95,-121.87" style="fill:#f05a78;fill-opacity:1;fill-rule:nonzero;stroke:none" id="path244"/>
      <path d="m 7535.72,1561.15 -4.79,-14.21 c 53.73,-18.11 87.63,-68.29 87.64,-121.99 0,-13.64 -2.18,-27.49 -6.79,-41.18 -18.11,-53.74 -68.3,-87.65 -122,-87.66 -13.63,0 -27.49,2.18 -41.15,6.79 h -0.02 l -362.95,121.89 c -11.85,3.96 -19.31,15.04 -19.32,26.89 0,3.01 0.47,6.05 1.5,9.08 v 0.02 l 64.15,190.2 c 3.97,11.85 15.08,19.31 26.91,19.33 3,-0.01 6.03,-0.48 9.08,-1.5 l 362.97,-121.88 -0.02,0.01 4.79,14.21 4.78,14.22 -362.96,121.87 c -6.14,2.07 -12.45,3.07 -18.64,3.07 -24.39,0.01 -47.08,-15.38 -55.34,-39.74 l -64.14,-190.21 v 0.02 c -2.09,-6.18 -3.08,-12.51 -3.08,-18.7 -0.02,-24.4 15.39,-47.1 39.76,-55.33 l 362.96,-121.88 h -0.02 c 16.78,-5.66 33.9,-8.36 50.74,-8.36 66.27,-0.01 128.04,41.83 150.43,108.08 5.66,16.79 8.36,33.92 8.36,50.76 0.01,66.27 -41.81,128.04 -108.05,150.41 l -0.02,0.01 -4.78,-14.22" style="fill:#3e3d3f;fill-opacity:1;fill-rule:nonzero;stroke:none" id="path246"/>
      <path d="m 6496.34,2177.65 c 217.73,-39.37 362.32,-247.74 322.97,-465.45 -39.34,-217.67 -247.73,-362.29 -465.43,-322.95 -217.72,39.34 -362.31,247.73 -322.96,465.44 39.35,217.69 247.75,362.28 465.42,322.96" style="fill-opacity: 1; fill-rule: nonzero; stroke: none; fill: rgb(77, 179, 181);" id="path248"/>
      <g id="g250">
        <g id="g252" clip-path="url(#clipPath256)">
          <path d="m 6062.15,2115.19 -60.17,571.84 c 317.39,33.4 601.95,-194.84 639.1,-510.92 l -578.93,-60.92" style="fill:#54bfd3;fill-opacity:1;fill-rule:nonzero;stroke:none" id="path258"/>
          <path d="m 6062.15,2115.19 29.84,3.14 -60.18,571.84 -29.83,-3.14 3.14,-29.83 c 19.66,2.07 39.17,3.08 58.49,3.08 138.37,0 266.99,-51.83 365.27,-138.76 98.25,-86.96 165.91,-208.71 182.41,-348.91 l 29.79,3.5 -3.14,29.84 -578.93,-60.92 3.14,-29.84 29.84,3.14 -29.84,-3.14 3.14,-29.83 609.13,64.09 -3.54,30.17 c -18.24,155.26 -93.41,290.59 -202.24,386.84 -108.82,96.29 -251.57,153.82 -405.03,153.82 -21.41,0 -43.02,-1.12 -64.77,-3.41 l -29.84,-3.14 66.45,-631.51 29.84,3.14 -3.14,29.83" style="fill:#3e3d3f;fill-opacity:1;fill-rule:nonzero;stroke:none" id="path260"/>
          <path d="m 6582.77,2173.23 c 0.12,-1.16 0.23,-2.22 0.33,-3.22 30.28,-287.8 -178.43,-545.59 -466.13,-575.86 -287.8,-30.28 -545.63,178.41 -575.92,466.22 -0.1,1 -0.03,2.07 -0.16,3.23 l 1041.88,109.63" style="fill:#9fd450;fill-opacity:1;fill-rule:nonzero;stroke:none" id="path262"/>
          <path d="m 6582.77,2173.23 -14.93,-1.52 c 0.13,-1.24 0.25,-2.29 0.33,-3.16 l 0.01,-0.11 c 1.91,-18.11 2.83,-36.1 2.84,-53.91 0,-257.12 -194.27,-477.99 -455.62,-505.46 -18.11,-1.9 -36.11,-2.84 -53.92,-2.84 -257.12,0 -478.03,194.25 -505.51,455.7 v 0.04 l -3.63,-0.39 3.65,0.14 -0.02,0.25 -3.63,-0.39 3.65,0.14 c -0.03,0.14 0.03,1.42 -0.19,3.51 l -14.91,-1.63 1.57,-14.92 1041.88,109.63 -1.57,14.92 -14.93,-1.52 14.93,1.52 -1.57,14.91 -1056.86,-111.2 1.64,-14.98 3.16,0.35 -3.17,-0.23 0.01,-0.12 3.16,0.35 -3.17,-0.23 v -0.11 c 0.03,-0.33 -0.02,-1.33 0.17,-3.21 v 0.04 c 29.15,-276.88 262.95,-482.56 535.34,-482.57 18.86,0 37.9,0.99 57.06,3.01 276.77,29.15 482.47,262.9 482.47,535.29 0.01,18.85 -0.98,37.89 -2.99,57.05 l 0.01,-0.11 c -0.11,1.13 -0.23,2.2 -0.34,3.27 l -1.52,14.98 -14.97,-1.58 1.57,-14.91" style="fill:#3e3d3f;fill-opacity:1;fill-rule:nonzero;stroke:none" id="path264"/>
          <path d="m 6061.88,2117.79 392.4,484.81 c 269.01,-217.85 312.09,-611.13 98.24,-881.99 l -490.64,397.18" style="fill:#f7d85c;fill-opacity:1;fill-rule:nonzero;stroke:none" id="path266"/>
          <path d="m 6061.88,2117.79 11.65,-9.44 392.41,484.81 -11.66,9.44 -9.44,-11.66 c 150.46,-121.85 228.47,-299.79 228.49,-479.42 -0.01,-133.94 -43.39,-268.62 -132.58,-381.62 l 11.77,-9.29 9.44,11.66 -490.65,397.18 -9.43,-11.66 11.65,-9.44 -11.65,9.44 -9.44,-11.66 502.45,-406.73 9.41,11.92 c 93.49,118.41 139.04,259.81 139.03,400.2 0.02,188.25 -81.88,375.01 -239.61,502.74 l -11.67,9.44 -411.27,-508.13 11.66,-9.44 9.44,11.66" style="fill:#3e3d3f;fill-opacity:1;fill-rule:nonzero;stroke:none" id="path268"/>
          <path d="m 6061.93,2114.61 -206.9,-536.64 c -297.75,114.88 -447.11,447.72 -336.2,746.05 l 543.1,-209.41" style="fill:#f05a78;fill-opacity:1;fill-rule:nonzero;stroke:none" id="path270"/>
          <path d="m 6061.93,2114.61 -27.99,10.8 -206.9,-536.65 27.99,-10.79 10.8,27.99 c -109.69,42.34 -197.95,115.66 -258.99,206.24 -61.01,90.58 -94.63,198.35 -94.62,309.13 0,63.91 11.16,128.84 34.73,192.23 l -28.12,10.46 -10.79,-27.99 543.1,-209.41 10.79,27.99 -27.99,10.8 27.99,-10.8 10.79,27.99 -571.43,220.33 -10.58,-28.46 c -26.09,-70.15 -38.5,-142.24 -38.49,-213.14 0,-122.93 37.25,-242.26 104.86,-342.65 67.59,-100.37 165.73,-181.86 287.15,-228.7 l 27.99,-10.8 228.49,592.63 -27.99,10.79 -10.79,-27.99" style="fill:#3e3d3f;fill-opacity:1;fill-rule:nonzero;stroke:none" id="path272"/>
          <path d="m 6062.29,2118.46 246.5,-556.1 c -308.56,-136.76 -669.22,0.43 -809.3,306.54 l 562.8,249.56" style="fill:#f05a78;fill-opacity:1;fill-rule:nonzero;stroke:none" id="path274"/>
          <path d="m 6062.29,2118.46 -13.71,-6.08 246.5,-556.1 13.71,6.08 -6.08,13.72 c -79.17,-35.09 -161.77,-51.68 -243.08,-51.68 -228.08,0.01 -445.78,130.59 -546.5,350.74 l -13.64,-6.24 6.08,-13.71 562.8,249.55 -6.08,13.72 -13.71,-6.08 13.71,6.08 -6.08,13.71 -576.67,-255.71 6.31,-13.8 c 105.79,-231.14 334.33,-368.28 573.78,-368.26 85.39,-0.01 172.2,17.44 255.24,54.25 l 13.71,6.07 -258.66,583.53 -13.71,-6.08 6.08,-13.71" style="fill:#3e3d3f;fill-opacity:1;fill-rule:nonzero;stroke:none" id="path276"/>
          <path d="m 5856.98,2096.85 c 11.91,-113.15 113.31,-195.17 226.38,-183.27 113.12,11.9 195.06,113.22 183.15,226.37 -11.89,112.99 -113.13,195.16 -226.25,183.26 -113.07,-11.9 -195.16,-113.35 -183.28,-226.36" style="fill-opacity: 1; fill-rule: nonzero; stroke: none; fill: rgb(77, 179, 181);" id="path278"/>
          <path d="m 5856.98,2096.85 -14.92,-1.57 c 11.98,-113.54 107.84,-197.84 219.5,-197.85 7.73,0 15.52,0.41 23.37,1.23 113.5,11.96 197.73,107.75 197.73,219.45 0,7.74 -0.41,15.55 -1.23,23.4 -11.96,113.4 -107.68,197.83 -219.39,197.84 -7.72,0 -15.52,-0.4 -23.35,-1.23 -113.48,-11.97 -197.84,-107.89 -197.85,-219.53 -0.01,-7.7 0.39,-15.48 1.23,-23.32 l 14.91,1.58 14.92,1.58 c -0.72,6.77 -1.06,13.49 -1.07,20.16 0,96.36 72.96,179.42 171,189.7 6.79,0.72 13.53,1.06 20.21,1.06 96.41,0.01 179.27,-72.99 189.55,-170.97 0.72,-6.81 1.07,-13.58 1.07,-20.27 0,-96.45 -72.79,-179.32 -170.87,-189.61 -6.8,-0.72 -13.55,-1.07 -20.23,-1.07 -96.39,0 -179.37,72.88 -189.66,170.99 l -14.92,-1.57" style="fill:#3e3d3f;fill-opacity:1;fill-rule:nonzero;stroke:none" id="path280"/>
        </g>
      </g>
      <path d="m 6496.34,2177.65 -2.67,-14.77 c 186.39,-33.66 317.09,-196.11 317.09,-378.98 0,-22.75 -2.02,-45.83 -6.21,-69.03 -33.65,-186.34 -196.11,-317.07 -378.99,-317.07 -22.75,0 -45.82,2.02 -69.02,6.21 -186.38,33.65 -317.08,196.1 -317.08,378.97 0,22.75 2.02,45.83 6.22,69.03 33.65,186.38 196.13,317.08 378.99,317.08 22.74,0 45.81,-2.02 69,-6.21 l 2.67,14.77 2.67,14.76 c -24.96,4.51 -49.82,6.68 -74.34,6.68 -197.21,0 -372.17,-140.86 -408.52,-341.74 -4.51,-24.97 -6.69,-49.84 -6.69,-74.37 0,-197.22 140.87,-372.16 341.75,-408.49 24.96,-4.51 49.82,-6.69 74.35,-6.69 197.23,0 372.18,140.89 408.51,341.73 4.51,24.98 6.69,49.84 6.69,74.37 0,197.22 -140.87,372.16 -341.75,408.51 l -2.67,-14.76" style="fill:#3e3d3f;fill-opacity:1;fill-rule:nonzero;stroke:none" id="path282"/>
      <path d="M 7861.66,1257.2 H 637.004" style="fill:#fffffe;fill-opacity:1;fill-rule:nonzero;stroke:none" id="path284"/>
      <path d="m 637.004,1242.2 h 7224.66 v 30 H 637.004 Z" style="fill:#3e3d3f;fill-opacity:1;fill-rule:nonzero;stroke:none" id="path286"/>
      <path d="m 2930.51,5009.8 h 902.41 v 30 h -902.41 z" style="fill:#3e3d3f;fill-opacity:1;fill-rule:nonzero;stroke:none" id="path288"/>
      <path d="m 3850.22,4542.76 h -20 v -30 h 20 z m -40,0 h -20 v -30 h 20 z m -40,0 h -20 v -30 h 20 z m -40,0 h -20 v -30 h 20 z m -40,0 h -20 v -30 h 20 z m -40,0 h -20 v -30 h 20 z m -40,0 h -20 v -30 h 20 z m -40,0 h -20 v -30 h 20 z m -40,0 h -20 v -30 h 20 z m -40,0 h -20 v -30 h 20 z m -40,0 h -20 v -30 h 20 z m -40,0 h -20 v -30 h 20 z m -40,0 h -20 v -30 h 20 z m -40,0 h -20 v -30 h 20 z m -40,0 h -20 v -30 h 20 z m -40,0 h -20 v -30 h 20 z m -40,0 h -20 v -30 h 20 z m -40,0 h -20 v -30 h 20 z m -40,0 h -20 v -30 h 20 z m -40,0 h -17.707 v -30 h 17.707 z" style="fill:#3e3d3f;fill-opacity:1;fill-rule:nonzero;stroke:none" id="path290"/>
      <path d="m 3970.63,5009.8 h 399.133 v 30 H 3970.63 Z" style="fill:#3e3d3f;fill-opacity:1;fill-rule:nonzero;stroke:none" id="path292"/>
      <path d="m 7258.36,2713.34 h 399.133 v 30 H 7258.36 Z" style="fill:#3e3d3f;fill-opacity:1;fill-rule:nonzero;stroke:none" id="path294"/>
      <path d="m 804.152,2891.21 81.371,-81.4 156.887,156.89 -21.21,21.21 -135.673,-135.67 -60.16,60.18 -21.215,-21.21" style="fill:#3e3d3f;fill-opacity:1;fill-rule:nonzero;stroke:none" id="path296"/>
      <path d="m 2221.11,4968.8 h 186.621 v 30 H 2221.11 Z" style="fill:#3e3d3f;fill-opacity:1;fill-rule:nonzero;stroke:none" id="path298"/>
      <path d="m 2299.41,4890.49 h 30 v 186.629 h -30 z" style="fill:#3e3d3f;fill-opacity:1;fill-rule:nonzero;stroke:none" id="path300"/>
      <path d="m 5298.34,4000.12 -131.96,131.97 -21.22,-21.21 131.97,-131.98" style="fill:#3e3d3f;fill-opacity:1;fill-rule:nonzero;stroke:none" id="path302"/>
      <path d="m 5166.38,3978.9 131.96,131.98 -21.21,21.21 -131.97,-131.97" style="fill:#3e3d3f;fill-opacity:1;fill-rule:nonzero;stroke:none" id="path304"/>
      <path d="m 6381.46,4449.42 h 902.398 v 30 H 6381.46 Z" style="fill:#3e3d3f;fill-opacity:1;fill-rule:nonzero;stroke:none" id="path306"/>
      <path d="m 7002.1,4306.81 h 399.129 v 30 H 7002.1 Z" style="fill:#3e3d3f;fill-opacity:1;fill-rule:nonzero;stroke:none" id="path308"/>
      <path d="m 752.242,4083.76 h 399.129 v 30 H 752.242 Z" style="fill:#3e3d3f;fill-opacity:1;fill-rule:nonzero;stroke:none" id="path310"/>
      <path d="m 1057.93,3830.62 h 140.949 v 30 H 1057.93 Z" style="fill:#3e3d3f;fill-opacity:1;fill-rule:nonzero;stroke:none" id="path312"/>
      <path d="m 1193.93,4616.78 h 729.73 v 30 h -729.73 z" style="fill:#3e3d3f;fill-opacity:1;fill-rule:nonzero;stroke:none" id="path314"/>
      <path d="m 6398.2,4592 h 399.121 v 30 H 6398.2 Z" style="fill:#3e3d3f;fill-opacity:1;fill-rule:nonzero;stroke:none" id="path316"/>
      <path d="m 4710.21,4616.87 h 399.121 v 30 H 4710.21 Z" style="fill:#3e3d3f;fill-opacity:1;fill-rule:nonzero;stroke:none" id="path318"/>
      <path d="m 2603.02,4356.26 h 434.973 v 30 H 2603.02 Z" style="fill:#3e3d3f;fill-opacity:1;fill-rule:nonzero;stroke:none" id="path320"/>
      <path d="m 7835.01,2726.22 h -15 c -0.01,-11.64 -4.7,-22.09 -12.38,-29.77 -7.7,-7.67 -18.18,-12.36 -29.86,-12.37 -11.66,0.01 -22.11,4.7 -29.79,12.36 -7.66,7.68 -12.35,18.12 -12.35,29.78 0.01,11.73 4.7,22.19 12.36,29.88 7.68,7.67 18.12,12.36 29.78,12.37 11.68,-0.01 22.15,-4.71 29.85,-12.38 7.68,-7.69 12.38,-18.16 12.39,-29.87 h 15 15 c -0.02,39.93 -32.39,72.23 -72.24,72.25 -39.85,-0.02 -72.13,-32.35 -72.14,-72.25 0.02,-39.82 32.3,-72.12 72.14,-72.14 39.85,0.02 72.21,32.29 72.24,72.14 h -15" style="fill:#3e3d3f;fill-opacity:1;fill-rule:nonzero;stroke:none" id="path322"/>
      <path d="m 6196.88,4040.17 h 10 v 30 h -10 z" style="fill:#3e3d3f;fill-opacity:1;fill-rule:nonzero;stroke:none" id="path324"/>
      <path d="m 6177.27,4070.17 h -19.6172 v -30 h 19.6172 z m -39.23,0 h -19.6094 v -30 h 19.6094 z m -39.22,0 h -19.6094 v -30 h 19.6094 z m -39.23,0 h -19.6094 v -30 h 19.6094 z m -39.22,0 h -19.6094 v -30 h 19.6094 z m -39.22,0 h -19.6094 v -30 h 19.6094 z m -39.22,0 h -19.6211 v -30 h 19.6211 z m -39.23,0 h -19.6094 v -30 H 5902.7 Z m -39.22,0 h -19.6094 v -30 h 19.6094 z m -39.22,0 h -19.6094 v -30 h 19.6094 z m -39.23,0 h -19.6094 v -30 h 19.6094 z m -39.22,0 h -19.6094 v -30 h 19.6094 z m -39.22,0 h -19.6094 v -30 h 19.6094 z m -39.22,0 h -19.6211 v -30 h 19.6211 z m -39.23,0 h -19.6094 v -30 h 19.6094 z m -39.22,0 h -19.6094 v -30 h 19.6094 z m -39.22,0 h -19.6094 v -30 H 5549.7 Z m -39.23,0 h -19.6094 v -30 h 19.6094 z m -39.22,0 h -19.6094 v -30 h 19.6094 z m -39.22,0 h -19.6094 v -30 h 19.6094 z m -39.22,0 h -19.6172 v -30 h 19.6172 z" style="fill:#3e3d3f;fill-opacity:1;fill-rule:nonzero;stroke:none" id="path326"/>
      <path d="m 5343.58,4040.17 h 10 v 30 h -10 z" style="fill:#3e3d3f;fill-opacity:1;fill-rule:nonzero;stroke:none" id="path328"/>
      <path d="m 5273.17,3624.06 h 437.258 v 30 H 5273.17 Z" style="fill:#3e3d3f;fill-opacity:1;fill-rule:nonzero;stroke:none" id="path330"/>
      <path d="m 4183.74,5291.13 h -20 v -30 h 20 z m -40,0 h -20 v -30 h 20 z m -40,0 h -20 v -30 h 20 z m -40,0 h -20 v -30 h 20 z m -40,0 h -20 v -30 h 20 z m -40,0 h -20 v -30 h 20 z m -40,0 h -20 v -30 h 20 z m -40,0 h -20 v -30 h 20 z m -40,0 h -20 v -30 h 20 z m -40,0 h -20 v -30 h 20 z m -40,0 h -20 v -30 h 20 z m -40,0 h -20 v -30 h 20 z m -40,0 h -20 v -30 h 20 z" style="fill:#3e3d3f;fill-opacity:1;fill-rule:nonzero;stroke:none" id="path332"/>
      <path d="m 6360.95,3199.92 v 15 h -68.84 v 96.47 h 53.83 l 0.01,-111.47 h 15 v 15 -15 h 14.99 v 141.47 h -113.83 v -156.47 h 113.83 v 15 h -14.99" style="fill:#3e3d3f;fill-opacity:1;fill-rule:nonzero;stroke:none" id="path334"/>
      <path d="m 6508.8,3199.92 v 15 h -68.85 v 251.74 h 53.85 v -266.74 h 15 v 15 -15 h 15 v 296.74 h -113.84 v -311.74 h 113.84 v 15 h -15" style="fill:#3e3d3f;fill-opacity:1;fill-rule:nonzero;stroke:none" id="path336"/>
      <path d="m 6656.66,3199.92 v 15 h -68.85 v 202.83 h 53.85 v -217.83 h 15 v 15 -15 h 15 v 247.83 h -113.85 v -262.83 h 113.85 v 15 h -15" style="fill:#3e3d3f;fill-opacity:1;fill-rule:nonzero;stroke:none" id="path338"/>
      <path d="m 6804.51,3199.92 v 15 h -68.84 v 332.48 h 53.84 v -347.48 h 15 v 15 -15 h 14.99 v 377.48 h -113.83 v -392.48 h 113.83 v 15 h -14.99" style="fill:#3e3d3f;fill-opacity:1;fill-rule:nonzero;stroke:none" id="path340"/>
      <path d="m 6854.04,3214.92 h -625.95 v 387.66 h -29.99 v -417.66 h 655.94 v 30" style="fill:#3e3d3f;fill-opacity:1;fill-rule:nonzero;stroke:none" id="path342"/>
      <path d="m 5768.22,4785.45 h -569.25 v 205.58 h -29.99 l -0.01,-235.58 h 599.25 v 30" style="fill:#3e3d3f;fill-opacity:1;fill-rule:nonzero;stroke:none" id="path344"/>
      <path d="m 5552.53,4839.54 c -10.39,0.72 -18.99,3.28 -26.6,7.38 -13.22,7.15 -24,19.51 -32.85,37.43 -13.26,26.76 -21.15,65.28 -25.52,109.19 -4.44,43.92 -5.6,93.24 -6.73,142.3 v -0.01 c -1.09,46.96 -2.26,99.81 -7.78,142.31 -2.81,21.32 -6.57,39.99 -12.7,54.99 -3.11,7.5 -6.81,14.21 -12.12,19.86 -5.19,5.61 -12.79,10.15 -21.4,10.84 l -1.32,0.12 -1.31,-0.12 c -8.62,-0.69 -16.21,-5.23 -21.41,-10.84 -4.65,-4.94 -8.05,-10.7 -10.92,-17.08 -4.99,-11.16 -8.39,-24.44 -11.1,-39.51 -8.01,-45.02 -9.31,-106.6 -10.58,-160.56 v 0 c -1.68,-74.72 -3.61,-150.22 -16.75,-205.95 -6.49,-27.85 -15.84,-50.49 -27.99,-65.55 -6.08,-7.56 -12.76,-13.31 -20.36,-17.42 -7.61,-4.1 -16.21,-6.66 -26.61,-7.38 l 2.04,-29.93 c 14.27,0.96 27.36,4.7 38.84,10.92 20.2,10.92 34.87,28.96 45.49,50.56 15.94,32.52 23.81,73.82 28.46,119.44 4.6,45.6 5.73,95.53 6.88,144.61 v 0.01 c 1.06,46.86 2.31,99.16 7.53,139.12 2.57,19.91 6.27,36.8 10.7,47.45 2.16,5.32 4.51,8.96 6.15,10.64 1.75,1.72 2,1.5 2.26,1.59 l -1.32,14.94 -1.31,-14.94 c 0.25,-0.09 0.5,0.13 2.26,-1.59 1.42,-1.48 3.42,-4.43 5.33,-8.73 3.4,-7.51 6.52,-18.88 8.94,-32.51 7.39,-41.08 8.9,-102.19 10.1,-155.97 v -0.01 c 1.79,-74.84 3.38,-151.43 17.54,-212.1 7.16,-30.34 17.43,-56.97 33.8,-77.47 8.18,-10.22 17.99,-18.83 29.49,-25.04 11.48,-6.22 24.57,-9.96 38.84,-10.92 l 2.04,29.93" style="fill:#3e3d3f;fill-opacity:1;fill-rule:nonzero;stroke:none" id="path346"/>
      <path d="m 5738.49,4839.55 c -22.19,0.05 -38.59,5.54 -52.02,14.54 -10.07,6.78 -18.52,15.75 -25.8,26.56 -10.9,16.17 -18.95,36.47 -25.07,58 -6.15,21.53 -10.41,44.2 -14.32,65.14 v -0.01 c -5.26,28.01 -9.93,51.5 -16.61,69.67 -3.41,9.09 -7.27,17.01 -13.04,23.69 -2.89,3.31 -6.36,6.3 -10.49,8.52 -4.11,2.22 -8.88,3.57 -13.66,3.79 l -0.74,0.04 -0.74,-0.04 c -4.78,-0.22 -9.55,-1.56 -13.66,-3.79 -7.27,-3.94 -12.31,-9.96 -16.26,-16.55 -5.89,-9.98 -9.85,-21.99 -13.57,-36.25 -3.66,-14.24 -6.9,-30.72 -10.34,-49.07 v -0.01 c -6.86,-37.19 -15.19,-80.02 -32.51,-111.77 -8.63,-15.91 -19.25,-28.89 -32.66,-37.92 -13.44,-9 -29.84,-14.49 -52.02,-14.54 v -30 c 27.29,-0.05 50.38,7.2 68.79,19.66 13.82,9.31 24.94,21.32 33.92,34.69 13.49,20.08 22.37,43.21 29.03,66.52 6.64,23.32 11.02,46.9 14.94,67.86 v -0.01 c 5.14,27.66 9.9,50.38 15.27,64.75 2.63,7.18 5.46,12.12 7.49,14.36 1.01,1.15 1.73,1.64 2.11,1.85 l 0.95,0.26 -0.74,14.98 -0.74,-14.98 0.94,-0.26 c 0.64,-0.3 2.47,-1.75 4.68,-5.48 3.34,-5.51 6.99,-15.44 10.28,-28.37 3.34,-12.95 6.5,-28.93 9.89,-47.1 v -0.01 c 7.05,-37.29 15.23,-82.7 35.66,-120.56 10.24,-18.9 23.81,-36.07 42.25,-48.5 18.4,-12.45 41.49,-19.71 68.79,-19.66 v 30" style="fill:#3e3d3f;fill-opacity:1;fill-rule:nonzero;stroke:none" id="path348"/>
      <path d="m 4483.3,3755.13 c -33.27,0 -60.34,27.06 -60.34,60.33 0,33.27 27.07,60.33 60.34,60.33 33.26,0 60.33,-27.06 60.33,-60.33 0,-33.27 -27.07,-60.33 -60.33,-60.33 z m 39.97,283.77 v 0 c -14.78,0 -27.21,-8.86 -31.67,-22.58 l -1.95,-6.05 c -2.08,0.07 -4.14,0.11 -6.2,0.11 -2.38,0 -4.77,-0.05 -7.18,-0.15 l -1.96,5.96 c -4.48,13.56 -17.01,22.61 -31.19,22.61 h -4.74 l -4.51,-1.46 -39.71,-12.87 c -17.24,-5.76 -26.59,-24.25 -21.12,-41.3 l 1.98,-6.05 c -3.71,-2.52 -7.34,-5.16 -10.87,-7.93 l -4.99,3.61 c -6,4.32 -12.51,6.49 -19.42,6.49 -10.41,0 -20.03,-5.04 -26.4,-13.83 l -23.94,-33.16 c -5.03,-6.88 -7.19,-15.84 -5.81,-24.43 1.39,-8.61 6.03,-16.19 13.08,-21.33 l 4.97,-3.6 c -0.84,-2.28 -1.62,-4.55 -2.36,-6.81 -0.65,-2.02 -1.26,-4.05 -1.84,-6.1 l -5.96,-0.02 c -8.73,0 -17.31,-3.62 -23.44,-9.94 -5.91,-5.91 -9.4,-14.53 -9.28,-23.32 l 0.09,-40.49 c 0.17,-18.15 14.9,-32.75 32.84,-32.75 l 5.84,0.02 c 1.27,-4.4 2.7,-8.75 4.28,-13.06 l -4.64,-3.39 c -6.89,-4.99 -11.66,-12.74 -13.03,-21.25 -1.39,-8.5 0.69,-17.37 5.72,-24.4 l 24.28,-33.2 c 6.29,-8.69 15.91,-13.72 26.32,-13.72 7.04,0 13.64,2.23 19.63,6.64 l 4.3,3.14 c 3.66,-2.85 7.43,-5.58 11.29,-8.17 l -1.66,-5.15 c -2.69,-8.34 -1.96,-17.26 2.07,-25.08 4.03,-7.82 10.86,-13.6 19.25,-16.26 l 39.72,-12.64 4.44,-1.42 h 4.66 c 14.21,0 26.75,9.08 31.2,22.59 l 1.67,5.19 c 2.24,-0.09 4.45,-0.13 6.66,-0.13 2.44,0 4.88,0.05 7.36,0.16 l 1.63,-4.99 c 4.45,-13.52 16.99,-22.59 31.22,-22.59 h 4.74 l 4.51,1.46 39.69,12.87 c 8.49,2.8 15.25,8.63 19.2,16.49 3.94,7.84 4.59,16.75 1.82,25.09 l -1.62,4.94 c 3.86,2.62 7.62,5.38 11.28,8.27 l 4.33,-3.13 c 5.75,-4.1 12.35,-6.22 19.23,-6.22 10.38,0 20.26,4.99 26.42,13.35 l 24.1,33.38 c 5.11,7.05 7.22,16.05 5.77,24.65 -1.33,8.36 -5.99,15.95 -13.06,21.11 l -4.67,3.37 c 0.75,2.06 1.45,4.1 2.09,6.11 0.74,2.3 1.45,4.65 2.11,7.03 l 5.66,0.01 c 8.64,0 17.04,3.5 23.15,9.64 6.19,6.18 9.68,14.68 9.59,23.48 l -0.1,40.63 c -0.05,18.07 -14.78,32.76 -32.83,32.76 l -6.12,-0.02 c -1.28,4.32 -2.71,8.6 -4.29,12.84 l 4.94,3.6 c 14.49,10.49 17.81,31.03 7.26,45.71 l -24.23,33.15 c -6.43,8.74 -16,13.71 -26.32,13.72 -6.91,0 -13.42,-2.17 -19.37,-6.44 l -5.24,-3.83 c -3.53,2.74 -7.16,5.35 -10.89,7.83 l 1.92,5.97 c 2.75,8.23 1.94,17.66 -2.32,25.56 -3.87,7.37 -10.58,13.04 -18.77,15.71 l -38.98,12.55 -3.62,1.17 -3.79,0.22 -0.89,0.06 z m -39.97,-313.77 c 49.81,0 90.33,40.51 90.33,90.33 0,49.8 -40.52,90.33 -90.33,90.33 -49.81,0 -90.34,-40.53 -90.34,-90.33 0,-49.82 40.53,-90.33 90.34,-90.33 m 39.97,283.77 0.44,-0.01 38.87,-12.52 c 0.97,-0.32 1.45,-1.02 1.66,-1.41 0.2,-0.38 0.49,-1.19 0.17,-2.16 l -9.3,-28.9 5.42,-2.9 c 12.92,-6.9 24.79,-15.44 35.26,-25.35 l 4.45,-4.24 24.42,17.87 1.88,0.81 c 0.66,0 1.34,-0.38 2.11,-1.42 l 24.09,-32.96 c 0.91,-1.27 0.66,-3.06 -0.61,-3.98 l -24.43,-17.86 2.71,-5.55 c 6.43,-13.19 11.07,-27.1 13.76,-41.29 l 1.16,-6.03 29.98,0.09 c 1.55,0 2.83,-1.28 2.83,-2.83 l 0.11,-40.84 c 0.01,-1.02 -0.51,-1.69 -0.83,-2 -0.3,-0.32 -0.96,-0.84 -2,-0.84 l -29.84,-0.08 -1.08,-6.08 c -1.32,-7.5 -3.11,-14.81 -5.33,-21.72 -2.02,-6.28 -4.65,-12.8 -8.02,-19.95 l -2.61,-5.53 24.1,-17.41 1.14,-1.84 -0.5,-2.11 -23.91,-33.12 c -0.77,-1.05 -1.86,-1.17 -2.29,-1.17 l -1.66,0.54 -23.91,17.26 -4.43,-4.28 c -10.56,-10.2 -22.47,-18.94 -35.43,-25.99 l -5.4,-2.93 9.14,-27.93 c 0.49,-1.48 -0.32,-3.09 -1.8,-3.57 l -39.69,-12.87 c -1.03,0 -2.27,0.6 -2.71,1.94 l -9.16,27.95 -6.09,-0.83 c -8,-1.09 -15.11,-1.64 -22.25,-1.64 -6.91,0 -13.85,0.52 -21.69,1.56 l -6.11,0.82 -9.02,-28.05 c -0.45,-1.36 -1.69,-1.98 -2.71,-1.98 l -39.73,12.65 c -1.51,0.48 -2.33,2.08 -1.85,3.57 l 9.03,28.04 -5.42,2.91 c -13.04,7 -25,15.66 -35.54,25.75 l -4.46,4.27 -23.87,-17.44 -1.86,-0.81 c -0.66,0 -1.35,0.38 -2.11,1.42 l -24.1,32.97 -0.5,2.12 1.13,1.85 24.03,17.56 -2.66,5.54 c -6.39,13.26 -10.96,27.25 -13.6,41.56 l -1.11,6.06 -29.85,-0.08 c -1.55,0 -2.82,1.27 -2.84,2.82 l -0.09,40.85 c -0.01,1.02 0.51,1.69 0.82,2 0.3,0.32 0.97,0.83 2,0.83 l 29.98,0.1 1.11,6.02 c 1.34,7.36 3.03,14.14 5.16,20.76 2.13,6.6 4.85,13.36 8.34,20.65 l 2.65,5.56 -24.47,17.67 c -1.26,0.92 -1.56,2.7 -0.63,3.97 l 23.91,33.11 c 0.76,1.06 1.45,1.44 2.1,1.44 l 1.85,-0.8 24.48,-17.7 4.44,4.26 c 10.49,10.04 22.31,18.66 35.12,25.6 l 5.41,2.92 -9.42,28.78 c -0.48,1.49 0.32,3.09 1.79,3.58 l 39.72,12.87 c 1.02,0 2.24,-0.6 2.69,-1.95 l 9.47,-28.91 6.08,0.82 c 7.97,1.08 15.02,1.62 22.09,1.62 6.79,0 13.61,-0.5 21.25,-1.52 l 6.1,-0.82 9.33,29.01 c 0.41,1.25 1.49,1.85 3.14,1.85" style="fill:#3e3d3f;fill-opacity:1;fill-rule:nonzero;stroke:none" id="path350"/>
      <path d="m 4334.95,4144.3 8.8,12.14 -4.6,-6.35 7.11,3.34 c -0.48,1.04 -1.35,2.18 -2.51,3.01 l -4.6,-6.35 7.11,3.34 -6.14,-2.88 h 6.8 c 0,0.86 -0.17,1.82 -0.66,2.88 l -6.14,-2.88 h 6.8 -6.47 l 6.31,-1.42 0.16,1.42 h -6.47 l 6.31,-1.42 0.04,0.15 c 1.81,8.49 2.85,17.35 2.85,26.51 0,9.16 -1.04,18.02 -2.85,26.51 l -0.01,0.04 -6.03,-1.3 6.16,-0.01 -0.13,1.31 -6.03,-1.3 6.16,-0.01 h -6.78 l 6.12,-2.87 c 0.5,1.06 0.66,2.02 0.66,2.87 h -6.78 l 6.12,-2.87 -7.12,3.34 4.61,-6.36 c 1.15,0.83 2.03,1.97 2.51,3.02 l -7.12,3.34 4.61,-6.36 35,25.42 0.04,0.03 c 5.34,3.91 8.21,10.06 8.19,16.16 0.01,4.05 -1.26,8.21 -3.77,11.69 l -0.22,0.31 -43.17,59.42 2.2,-3.03 c -3.9,5.37 -10.05,8.25 -16.18,8.24 -4.05,0.01 -8.27,-1.27 -11.8,-3.86 l -33.72,-24.49 4.78,-6.58 v 8.17 c -1.3,0.02 -3.21,-0.44 -4.78,-1.6 l 4.78,-6.57 v 8.17 -6.12 l 3.25,5.24 c -0.83,0.49 -1.75,0.85 -3.25,0.88 v -6.12 l 3.25,5.24 -0.02,0.01 c -15.66,9.69 -33.57,16.09 -52.69,18.34 l -0.73,-6.24 3.75,5.01 c -1.04,0.77 -2.01,1.1 -3.01,1.23 l -0.74,-6.24 3.75,5.01 -4.6,-6.14 7.27,2.35 c -0.54,1.69 -1.64,3.04 -2.67,3.79 l -4.6,-6.14 7.27,2.35 -0.01,0.02 -12.4,38.14 0.01,-0.01 c -2.78,8.46 -10.59,13.84 -19.03,13.83 -2.05,0 -4.15,-0.32 -6.21,-0.99 l -66.54,-21.63 0.02,0.01 c -8.46,-2.76 -13.86,-10.57 -13.84,-19.03 -0.01,-1.99 0.3,-4.17 1.03,-6.35 l 14.21,4.81 -14.26,-4.64 11.99,-36.91 -0.31,0.97 6.36,2.05 h -6.67 l 0.31,-2.05 6.36,2.05 h -6.67 8.35 l -7.68,3.23 c -0.53,-1.27 -0.67,-2.36 -0.67,-3.23 h 8.35 l -7.68,3.23 8.87,-3.73 -6.05,7.47 c -1.31,-1.04 -2.3,-2.47 -2.82,-3.74 l 8.87,-3.73 -6.05,7.47 0.01,0.01 c -16.15,-13.04 -29.06,-29.88 -37.43,-49.2 l 4.85,-2.1 -3.24,4.1 c -0.99,-0.81 -1.34,-1.42 -1.61,-2 l 4.85,-2.1 -3.24,4.1 4.99,-6.31 v 7.98 c -2.13,0.02 -4.06,-0.88 -4.99,-1.67 l 4.99,-6.31 v 7.98 h -36.67 c -11.04,-0.02 -19.98,-8.96 -20,-20 v -70 c 0.02,-11.04 8.96,-19.98 20,-20 h 36.67 v 7.04 l -3.4,-6.12 c 1.37,-0.74 2.41,-0.91 3.4,-0.92 v 7.04 l -3.4,-6.12 4.42,7.96 -8.36,-3.48 c 0.89,-2.17 2.6,-3.77 3.94,-4.48 l 4.42,7.96 -8.36,-3.48 v 0.01 c 8.1,-19.48 20.79,-36.49 36.73,-49.76 l 3.53,4.24 -4.87,-2.56 1.34,-1.68 3.53,4.24 -4.87,-2.56 6.72,3.53 h -7.55 c 0,-1.55 0.42,-2.75 0.83,-3.53 l 6.72,3.53 h -7.55 8.44 l -8.05,2.55 -0.39,-2.55 h 8.44 l -8.05,2.55 0.04,0.11 -11.69,-35.96 -0.01,-0.02 c -0.63,-1.94 -0.98,-4.03 -0.97,-6.16 0,-4.24 1.33,-8.28 3.73,-11.64 2.38,-3.35 5.93,-6.05 10.12,-7.39 l -0.03,0.01 66.57,-21.64 c 2.03,-0.66 4.13,-0.98 6.18,-0.98 8.45,-0.01 16.25,5.38 19.02,13.81 l 12.4,38.15 0.02,0.04 -7.44,2.39 4.43,-6.52 c 0.97,0.62 2.38,2.13 3.01,4.13 l -7.44,2.39 4.43,-6.52 -2.66,3.91 0.59,-4.75 c 0.49,0.08 1.07,0.19 2.07,0.84 l -2.66,3.91 0.59,-4.75 c 19.08,2.34 36.95,8.81 52.57,18.58 l -3.89,6.21 v -7.31 c 1.43,0 2.74,0.39 3.89,1.1 l -3.89,6.21 v -7.31 7.85 l -4.6,-6.35 c 1.4,-1.02 3.11,-1.51 4.6,-1.5 v 7.85 l -4.6,-6.35 -0.02,0.01 33.77,-24.53 -0.03,0.03 c 3.52,-2.58 7.72,-3.86 11.78,-3.85 6.14,-0.02 12.27,2.88 16.16,8.22 l 0.03,0.02 41.15,56.64 0.01,0.02 c 2.55,3.51 3.81,7.7 3.8,11.73 0.01,6.15 -2.87,12.25 -8.18,16.14 l -0.06,0.05 -34.99,25.41 -0.01,0.01 -8.8,-12.14 -8.81,-12.14 34.99,-25.42 -0.06,0.05 5.9,8.04 h -9.98 c -0.01,-3.06 1.44,-6.1 4.08,-8.04 l 5.9,8.04 h -9.98 10.01 l -8.1,5.87 c -1.27,-1.74 -1.92,-3.88 -1.91,-5.87 H 4367 l -8.1,5.87 -41.14,-56.62 0.02,0.03 8.06,-5.89 v 9.98 c -3.05,0.02 -6.13,-1.45 -8.06,-4.09 l 8.06,-5.89 v 9.98 -10.03 l 5.92,8.1 c -1.75,1.29 -3.9,1.94 -5.92,1.93 v -10.03 l 5.92,8.1 -0.04,0.02 -34.17,24.83 0.38,-0.28 c -3.9,2.84 -8.55,4.21 -12.99,4.2 -4.24,-0.01 -8.38,-1.19 -12.01,-3.46 -11.97,-7.48 -25.62,-12.43 -40.33,-14.24 -3.74,-0.48 -7.51,-1.69 -11.13,-4.13 -3.59,-2.39 -7.06,-6.36 -8.69,-11.48 l -12.39,-38.1 9.51,-3.09 v 9.99 c -4.23,0.02 -8.11,-2.69 -9.51,-6.9 l 9.51,-3.09 v 9.99 -10 l 3.08,9.51 c -0.99,0.33 -2.06,0.49 -3.08,0.49 v -10 l 3.08,9.51 -66.56,21.64 -0.03,0.01 -3.07,-9.54 8.14,5.83 c -1.18,1.67 -3,3.05 -5.07,3.71 l -3.07,-9.54 8.14,5.83 -8.13,-5.81 h 9.99 c 0,2.13 -0.66,4.13 -1.86,5.81 l -8.13,-5.81 h 9.99 -9.99 l 9.51,-3.08 c 0.3,0.92 0.49,1.96 0.48,3.08 h -9.99 l 9.51,-3.08 v -0.02 l 11.75,36.16 -0.02,-0.07 c 0.66,2.1 1,4.32 1,6.49 0,3.95 -1.07,7.5 -2.62,10.45 -1.57,2.96 -3.62,5.39 -6.02,7.4 -12.27,10.21 -22.02,23.29 -28.22,38.21 l -1.15,2.77 1.15,-2.76 c -1.94,4.71 -5.54,8.22 -9.18,10.21 -3.68,2.03 -7.45,2.85 -11.18,2.86 h -36.67 v -10 h 10 c -0.01,5.51 -4.49,9.99 -10,10 v -10 h 10 v 70 h -10 v -10 c 5.51,0.01 9.99,4.49 10,10 h -10 v -10 h 36.67 c 5.37,-0.02 10.23,2.08 13.62,4.8 3.45,2.75 5.75,6.05 7.31,9.6 6.42,14.82 16.34,27.76 28.76,37.8 l 0.01,0.01 c 2.74,2.2 4.76,5.08 5.96,7.94 1.2,2.89 1.66,5.74 1.66,8.4 0,2.54 -0.41,4.92 -1.13,7.18 l -0.31,0.95 -11.39,35.04 -0.06,0.17 -9.65,-3.27 h 10.19 c 0.01,0.97 -0.15,2.12 -0.54,3.27 l -9.65,-3.27 h 10.19 -10 l 3.08,-9.51 c 4.23,1.39 6.94,5.27 6.92,9.51 h -10 l 3.08,-9.51 h 0.02 l 66.57,21.64 0.04,0.01 -3.13,9.55 v -10.05 c 1.02,0 2.08,0.16 3.13,0.5 l -3.13,9.55 v -10.05 10 l -9.51,-3.09 c 1.4,-4.23 5.28,-6.92 9.51,-6.91 v 10 l -9.51,-3.09 v -0.01 l 12.41,-38.14 -0.01,0.03 c 1.49,-4.66 4.47,-8.45 7.9,-11 3.44,-2.56 7.35,-4.05 11.43,-4.54 14.74,-1.74 28.43,-6.64 40.42,-14.06 l -0.01,0.01 c 3.65,-2.25 7.84,-3.61 12.57,-3.63 4.16,-0.03 8.88,1.22 12.86,4.14 l 33.77,24.53 0.05,0.04 -5.94,8.1 v -10.05 c 2.01,-0.01 4.17,0.64 5.94,1.95 l -5.94,8.1 v -10.05 9.99 l -8.08,-5.88 c 1.95,-2.67 5.04,-4.13 8.08,-4.11 v 9.99 l -8.08,-5.88 v 0.01 l 41.36,-56.94 -0.26,0.36 8.1,5.83 h -9.98 c -0.01,-2.02 0.64,-4.12 1.88,-5.83 l 8.1,5.83 h -9.98 9.99 l -5.9,8.06 c -2.66,-1.96 -4.11,-5.05 -4.09,-8.06 h 9.99 l -5.9,8.06 -34.93,-25.39 0.01,0.02 c -3.17,-2.29 -5.56,-5.34 -7.05,-8.54 -1.5,-3.22 -2.17,-6.57 -2.17,-9.87 0,-1.72 0.18,-3.4 0.54,-5.04 l -0.01,0.04 c 1.41,-6.61 2.19,-13.35 2.19,-20.24 0,-6.9 -0.78,-13.63 -2.19,-20.24 l 14.67,-3.13 -14.64,3.29 c -0.4,-1.79 -0.56,-3.52 -0.56,-5.16 0,-3.31 0.67,-6.67 2.18,-9.87 1.49,-3.2 3.88,-6.25 7.04,-8.53 l -0.01,0.01 8.81,12.14" style="fill:#3e3d3f;fill-opacity:1;fill-rule:nonzero;stroke:none" id="path352"/>
      <path d="m 4261.84,4175.79 h -15 c -0.03,-15.18 -12.32,-27.47 -27.5,-27.5 -15.18,0.03 -27.48,12.32 -27.51,27.5 0.03,15.18 12.33,27.47 27.51,27.5 15.18,-0.03 27.47,-12.32 27.5,-27.5 h 15 14.99 c 0,31.76 -25.73,57.49 -57.49,57.5 -31.76,-0.01 -57.49,-25.74 -57.5,-57.5 0.01,-31.76 25.74,-57.49 57.5,-57.5 31.76,0.01 57.49,25.74 57.49,57.5 h -14.99" style="fill:#3e3d3f;fill-opacity:1;fill-rule:nonzero;stroke:none" id="path354"/>
      <path d="m 4557.39,2697.64 2.99,91.66 -0.07,0.96 -14.95,-1.2 14.99,-0.42 0.01,0.68 c -0.06,6.19 -2.28,11.66 -6.31,16.2 -3.96,4.51 -10.52,7.91 -17.7,7.85 l -0.89,-0.01 0.62,-14.99 1.42,14.93 -0.16,0.02 -0.95,0.09 -91.76,-3 0.98,-29.99 90.8,2.97 -0.49,14.99 -1.41,-14.93 0.16,-0.02 1.01,-0.09 1.03,0.04 -0.36,8.45 v -8.46 l 0.36,0.01 -0.36,8.45 v -8.46 6.14 l -4.55,-4.11 c 0.85,-1.06 2.91,-2.09 4.55,-2.03 v 6.14 l -4.55,-4.11 4.34,3.92 h -5.78 c 0.06,-1.9 0.53,-2.83 1.44,-3.92 l 4.34,3.92 h -5.78 v -0.02 l 8.83,-0.07 -8.83,0.25 v -0.18 l 8.83,-0.07 -8.83,0.25 -0.02,-0.79 v -0.1 l -2.94,-89.97 29.99,-0.98" style="fill:#f2f2f2;fill-opacity:1;fill-rule:nonzero;stroke:none" id="path356"/>
    </g>
  </g>
</svg>